<?xml version="1.0" encoding="utf-8"?>
<!-- Generator: Adobe Illustrator 24.3.0, SVG Export Plug-In . SVG Version: 6.00 Build 0)  -->
<svg version="1.1" id="Layer_1" xmlns="http://www.w3.org/2000/svg" xmlns:xlink="http://www.w3.org/1999/xlink" x="0px" y="0px"
	 viewBox="0 0 1031.7 1217.8" style="enable-background:new 0 0 1031.7 1217.8;" xml:space="preserve">
<style type="text/css">
	.st0{fill:url(#SVGID_1_);}
	.st1{fill:url(#SVGID_2_);stroke:#CCB849;stroke-miterlimit:10;}
	.st2{fill:url(#SVGID_3_);}
	.st3{fill:url(#SVGID_4_);}
	.st4{fill:url(#SVGID_5_);}
	.st5{fill:url(#SVGID_6_);}
	.st6{fill:url(#SVGID_7_);}
	.st7{fill:url(#SVGID_8_);}
	.st8{fill:url(#SVGID_9_);}
	.st9{fill:url(#SVGID_10_);}
	.st10{fill:url(#SVGID_11_);}
	.st11{fill:url(#SVGID_12_);}
	.st12{fill:url(#SVGID_13_);}
	.st13{fill:url(#SVGID_14_);}
	.st14{fill:url(#SVGID_15_);}
	.st15{fill:url(#SVGID_16_);}
	.st16{fill-rule:evenodd;clip-rule:evenodd;fill:url(#SVGID_17_);}
	.st17{fill-rule:evenodd;clip-rule:evenodd;fill:url(#SVGID_18_);}
	.st18{fill-rule:evenodd;clip-rule:evenodd;fill:url(#SVGID_19_);}
	.st19{fill-rule:evenodd;clip-rule:evenodd;fill:url(#SVGID_20_);}
	.st20{fill-rule:evenodd;clip-rule:evenodd;fill:url(#SVGID_21_);}
	.st21{fill-rule:evenodd;clip-rule:evenodd;fill:url(#SVGID_22_);}
	.st22{fill:url(#SVGID_23_);}
	.st23{fill:url(#SVGID_24_);}
	.st24{fill:url(#SVGID_25_);}
	.st25{fill:url(#SVGID_26_);}
	.st26{fill:url(#SVGID_27_);}
	.st27{fill:url(#SVGID_28_);}
	.st28{fill:url(#SVGID_29_);}
</style>
<g id="Layer_2_1_">
	<g id="Layer_1-2">
		<linearGradient id="SVGID_1_" gradientUnits="userSpaceOnUse" x1="201.9425" y1="327.8803" x2="-380.1851" y2="-53.5665">
			<stop  offset="0" style="stop-color:#C2AD3A"/>
			<stop  offset="0.2492" style="stop-color:#D3C155"/>
		</linearGradient>
		<path class="st0" d="M824.1,495.2c-136.3-58.9-311.6-94.4-502.8-94.4c-114.3,0-222.9,12.7-320.8,35.4V0l0.2,0.6
			c97.7,241.7,335.4,346.4,505.9,391C592.1,413.9,713.6,441.9,824.1,495.2z"/>
		<linearGradient id="SVGID_2_" gradientUnits="userSpaceOnUse" x1="235.7642" y1="661.2612" x2="1055.3386" y2="1421.0909">
			<stop  offset="0" style="stop-color:#C2AD3A"/>
			<stop  offset="0.569" style="stop-color:#CBB748"/>
			<stop  offset="1" style="stop-color:#D3C155"/>
		</linearGradient>
		<path class="st1" d="M1031.2,808.3c0,134.6-79.1,251.3-194.8,309.3c-15,6.8-30.5,13.2-46.5,19.4l0,0c-2.5,1-5,1.9-7.5,2.9
			c-129.5,48.8-288.8,77.5-461,77.5c-114.3,0-222.9-12.6-320.8-35.3V436.2c98-22.8,206.5-35.4,320.8-35.4
			c165.2,0,318.5,26.5,445,71.6c19.9,7.1,39.2,14.7,57.8,22.7c23.9,10.2,46.6,23,67.6,38.2c15.1,11.2,29.2,23.6,42.3,37.1
			c14.4,14.9,27.5,31,39.1,48.2c11.6,17.2,21.7,35.5,30,54.5c17,39.1,26.5,81,27.9,123.6C1031.1,800.6,1031.2,804.4,1031.2,808.3z"
			/>
	</g>
</g>
<g>
	
		<linearGradient id="SVGID_3_" gradientUnits="userSpaceOnUse" x1="-4376.9712" y1="203.7313" x2="-4345.9834" y2="398.6902" gradientTransform="matrix(-1 0 0 -1 -3745.7 1215.8898)">
		<stop  offset="0" style="stop-color:#2B3582"/>
		<stop  offset="1" style="stop-color:#150E42"/>
	</linearGradient>
	<rect x="612.9" y="864.2" class="st2" width="14.3" height="155.1"/>
	
		<linearGradient id="SVGID_4_" gradientUnits="userSpaceOnUse" x1="-4364.5396" y1="201.7583" x2="-4333.54" y2="396.7173" gradientTransform="matrix(-1 0 0 -1 -3745.7002 1215.8898)">
		<stop  offset="0" style="stop-color:#2B3582"/>
		<stop  offset="1" style="stop-color:#150E42"/>
	</linearGradient>
	<path class="st3" d="M557.3,1022.3h125.6c0-5.2-4.2-9.3-9.3-9.3c0,0,0,0,0,0H566.6C561.5,1012.9,557.3,1017.1,557.3,1022.3
		C557.3,1022.3,557.3,1022.3,557.3,1022.3L557.3,1022.3z"/>
	
		<linearGradient id="SVGID_5_" gradientUnits="userSpaceOnUse" x1="-4388.4805" y1="205.5674" x2="-4357.4922" y2="400.5263" gradientTransform="matrix(-1 0 0 -1 -3745.7002 1215.8898)">
		<stop  offset="0" style="stop-color:#53D8FF"/>
		<stop  offset="1" style="stop-color:#3840F7"/>
	</linearGradient>
	<path class="st4" d="M554.1,829.5h127.1c8.5,0,15.4,6.9,15.4,15.4c0,0,0,0,0,0v13.9c0,8.5-6.9,15.4-15.4,15.4c0,0,0,0,0,0H554.1
		c-8.5,0-15.4-6.9-15.4-15.4l0,0v-14C538.6,836.4,545.5,829.5,554.1,829.5C554.1,829.5,554.1,829.5,554.1,829.5z"/>
	
		<linearGradient id="SVGID_6_" gradientUnits="userSpaceOnUse" x1="-1062.7936" y1="328.6767" x2="-1009.7014" y2="328.6767" gradientTransform="matrix(-1 -2.000000e-02 2.000000e-02 -1 -373.9078 1205.4998)">
		<stop  offset="0" style="stop-color:#F9B776"/>
		<stop  offset="1" style="stop-color:#F47960"/>
	</linearGradient>
	<path class="st5" d="M677.5,844.3C705,882.1,697.1,923,642,950.5c-3.9-3.5-5-6.8-1.1-14.3c43.9-31.6,37.2-60.3,10.2-78.5
		L677.5,844.3z"/>
	
		<linearGradient id="SVGID_7_" gradientUnits="userSpaceOnUse" x1="-1359.9125" y1="415.6944" x2="-1306.3386" y2="415.6944" gradientTransform="matrix(-0.99 -0.14 0.14 -0.99 -775.7846 1132.1609)">
		<stop  offset="0" style="stop-color:#F9B776"/>
		<stop  offset="1" style="stop-color:#F47960"/>
	</linearGradient>
	<path class="st6" d="M620.1,861.5c22,39.2,17.2,69.9-46,90.1c-3.5-9-2-13.9,3.4-15.7c47.9-24,35.6-42.9,11.9-63.3L620.1,861.5z"/>
	
		<linearGradient id="SVGID_8_" gradientUnits="userSpaceOnUse" x1="-2500.9487" y1="892.822" x2="-2472.427" y2="892.822" gradientTransform="matrix(0.5875 -0.8092 -0.8092 -0.5875 2753.8647 -535.6839)">
		<stop  offset="0" style="stop-color:#2C759E"/>
		<stop  offset="1" style="stop-color:#051042"/>
	</linearGradient>
	<path class="st7" d="M574.1,937.8c-1.8,7.6-1,11.5,4.8,13.1c3.5,12.4,1.5,19.3-4.4,22c-7.4-10.5-13-21.7-14.8-34.6
		C565.2,936.2,572.8,934.4,574.1,937.8z"/>
	
		<linearGradient id="SVGID_9_" gradientUnits="userSpaceOnUse" x1="-2460.2361" y1="839.7374" x2="-2431.8884" y2="839.7374" gradientTransform="matrix(0.5875 -0.8092 -0.8092 -0.5875 2753.8647 -535.6839)">
		<stop  offset="0" style="stop-color:#2C759E"/>
		<stop  offset="1" style="stop-color:#051042"/>
	</linearGradient>
	<path class="st8" d="M640.9,936.2c-1.8,7.5-1,11.4,4.8,13c3.4,12.3,1.5,19.2-4.3,21.9c-7.3-10.4-12.9-21.6-14.7-34.4
		C632.1,934.6,639.6,932.9,640.9,936.2z"/>
	
		<linearGradient id="SVGID_10_" gradientUnits="userSpaceOnUse" x1="-319.8084" y1="340.4393" x2="-206.0058" y2="340.4393" gradientTransform="matrix(-0.98 0.21 -0.21 -0.98 440.7368 1213.322)">
		<stop  offset="0" style="stop-color:#2B3582"/>
		<stop  offset="1" style="stop-color:#150E42"/>
	</linearGradient>
	<path class="st9" d="M561.2,791c-3.7,25.6,7.7,58,27.8,84.7c14.3,1.6,29.8,0.2,41.8-7.3l-15.2-34.4l7.1-2.1l29.7,30.5
		c13.4,2,22.3-4.8,32.8-11.7c-11.7-25.7-38.1-37.7-45-73.6L561.2,791z"/>
	
		<linearGradient id="SVGID_11_" gradientUnits="userSpaceOnUse" x1="-4228.0273" y1="538.389" x2="-4355.2622" y2="503.5133" gradientTransform="matrix(-1 -5.000000e-02 5.000000e-02 -1 -3659.5945 1073.0697)">
		<stop  offset="0" style="stop-color:#2B3582"/>
		<stop  offset="1" style="stop-color:#150E42"/>
	</linearGradient>
	<path class="st10" d="M615.8,786.1h0.4l157.9-0.2c3.9,0.2,7.2-2.9,7.3-6.8c0.2-3.9-2.9-7.2-6.8-7.3c-0.2,0-0.4,0-0.6,0l-158,0.2
		c-3.9,0-7,3.2-7,7.1C609.1,782.8,612,785.8,615.8,786.1L615.8,786.1z"/>
	
		<linearGradient id="SVGID_12_" gradientUnits="userSpaceOnUse" x1="612.114" y1="461.8787" x2="1005.1688" y2="468.4326" gradientTransform="matrix(1 0 0 -1 0 1215.8898)">
		<stop  offset="0" style="stop-color:#F9B776"/>
		<stop  offset="1" style="stop-color:#F47960"/>
	</linearGradient>
	<path class="st11" d="M661.8,730.6c0,0,10.1,52.4,13.8,52.4s72.5-8.3,72.5-8.3v-14.9l-54.3,2l-13.1-38.9L661.8,730.6z"/>
	
		<linearGradient id="SVGID_13_" gradientUnits="userSpaceOnUse" x1="633.9994" y1="436.9667" x2="689.0467" y2="436.9667" gradientTransform="matrix(1 0 0 -1 0 1215.8898)">
		<stop  offset="0" style="stop-color:#2B3582"/>
		<stop  offset="1" style="stop-color:#150E42"/>
	</linearGradient>
	<path class="st12" d="M634.2,791.7H689c0,0-12.5-26.8-35.3-25.5C631,767.5,634.2,791.7,634.2,791.7z"/>
	
		<linearGradient id="SVGID_14_" gradientUnits="userSpaceOnUse" x1="639.836" y1="452.9977" x2="345.0226" y2="747.8111" gradientTransform="matrix(1 0 0 -1 0 1215.8898)">
		<stop  offset="0" style="stop-color:#CB236D"/>
		<stop  offset="1" style="stop-color:#4C246D"/>
	</linearGradient>
	<path class="st13" d="M648.9,786.9H557l5.6-65.1c0,0-6.9-49.1,24.5-54.6c18.5-5,18.5-5,18.5-5s23.6-3.7,43.4,5
		c19.8,8.7,36,61.1,36,61.1l-23.6,9.5l-6-19.5L648.9,786.9z"/>
	
		<linearGradient id="SVGID_15_" gradientUnits="userSpaceOnUse" x1="610.7988" y1="463.001" x2="570.4223" y2="551.193" gradientTransform="matrix(1 0 0 -1 0 1215.8898)">
		<stop  offset="0" style="stop-color:#CB236D"/>
		<stop  offset="1" style="stop-color:#4C246D"/>
	</linearGradient>
	<path class="st14" d="M597.3,733.3c-0.1,0-0.3-0.1-0.3-0.2c-0.1-0.2-0.1-0.4,0.1-0.6c0,0,0,0,0,0l3.8-2.9l-12.3-33.8
		c-0.1-0.2,0.1-0.5,0.3-0.5c0.2,0,0.4,0.1,0.5,0.2l12.3,34.1c0.1,0.2,0,0.4-0.1,0.5l-4,3C597.5,733.3,597.4,733.3,597.3,733.3z"/>
	
		<linearGradient id="SVGID_16_" gradientUnits="userSpaceOnUse" x1="515.7549" y1="456.0503" x2="995.8253" y2="464.0494" gradientTransform="matrix(1 0 0 -1 0 1215.8898)">
		<stop  offset="0" style="stop-color:#F9B776"/>
		<stop  offset="1" style="stop-color:#F47960"/>
	</linearGradient>
	<path class="st15" d="M576.7,742.4l20.6-9.5l18.2,32c0,0,51.5-8,60.7,1.7c9.2,9.7,4.9,9.6,3.7,9.6s-6.5-5.7-6.5-5.7s4.6,7,2.2,7.3
		c-2.5,0.3-8.6-6.3-8.6-6.3s5,8.7,2,7.7c-3-1-5.4-5.7-5.4-5.7s4,5.6,1.3,5.8s-6.9-4.6-6.9-4.6s-6.4,2.9-10,2.9s-40.5,9.2-47.1,5.4
		C594.4,779.2,576.7,742.4,576.7,742.4z"/>
	
		<linearGradient id="SVGID_17_" gradientUnits="userSpaceOnUse" x1="960.8065" y1="-116.2247" x2="947.9788" y2="-13.6142" gradientTransform="matrix(0.9402 -0.3405 -0.3405 -0.9402 -264.138 864.1502)">
		<stop  offset="0" style="stop-color:#F9B776"/>
		<stop  offset="1" style="stop-color:#F47960"/>
	</linearGradient>
	<path class="st16" d="M658.7,616.2c0,0-2.5-7.2,3.9-8.4c6.5-1.3,0.3,17.7,0.3,17.7L658.7,616.2z"/>
	
		<linearGradient id="SVGID_18_" gradientUnits="userSpaceOnUse" x1="604.577" y1="509.5905" x2="629.6163" y2="603.5185" gradientTransform="matrix(1 0 0 -1 0 1215.8898)">
		<stop  offset="0" style="stop-color:#F9B776"/>
		<stop  offset="1" style="stop-color:#F47960"/>
	</linearGradient>
	<path class="st17" d="M607,635.7l-2.6,28c0,0,14.8,8.6,27.5,1.1l-2.2-24.5L607,635.7z"/>
	
		<linearGradient id="SVGID_19_" gradientUnits="userSpaceOnUse" x1="1549.7568" y1="317.9942" x2="1276.2856" y2="24.1778" gradientTransform="matrix(0.9 -0.43 -0.43 -0.9 -413.4874 844.2708)">
		<stop  offset="0" style="stop-color:#CB236D"/>
		<stop  offset="1" style="stop-color:#4C246D"/>
	</linearGradient>
	<path class="st18" d="M661.7,615.7c4.6-2.3,3-20.8,3-25.1c-0.8,1.2-2.3,1.8-3.7,1.5c3.8-8.5,1.1-18.5-2.2-27.2
		c-2.2,2.5-6.8,5.5-10.3,4.5c1-2.4,1.1-5.1,0.5-7.6c-2.9,3.4-7.4,5-11.7,4.2c1.4-2.6,0.6-5.9-1.8-7.6c-7.6,4.9-15.8,8.9-24.2,12.1
		c-9.8,3.7-20.6,6.5-27.3,14.4c-6.8,7.9-7.2,17.9-5.8,27.6c0.7,5.3,1.2,10.5,3.3,15.6c5.8,14,19.3,15.7,32.4,10.6L661.7,615.7z"/>
	
		<linearGradient id="SVGID_20_" gradientUnits="userSpaceOnUse" x1="928.4349" y1="-111.2273" x2="918.2624" y2="-29.7909" gradientTransform="matrix(0.9402 -0.3405 -0.3405 -0.9402 -264.138 864.1502)">
		<stop  offset="0" style="stop-color:#F9B776"/>
		<stop  offset="1" style="stop-color:#F47960"/>
	</linearGradient>
	<path class="st19" d="M649.7,592.5c0,0,30.9,46.5-1,60.8c-30.1,13.4-42.8-17.5-42.8-17.5s-13.2-13.7-8.8-24.3
		S642.2,586.7,649.7,592.5z"/>
	
		<linearGradient id="SVGID_21_" gradientUnits="userSpaceOnUse" x1="1387.071" y1="439.2261" x2="1130.7632" y2="163.8503" gradientTransform="matrix(0.9402 -0.3405 -0.3405 -0.9402 -264.138 864.1502)">
		<stop  offset="0" style="stop-color:#CB236D"/>
		<stop  offset="1" style="stop-color:#4C246D"/>
	</linearGradient>
	<path class="st20" d="M602.9,628.4c0.3,0,0.7,0,1,0c2.8-0.4,7.8-3.9,10.6-5.3c11-5.8,20.6-14.1,27.9-24.2c0.3-0.5,0.9-1,1.4-0.8
		c0.3,0.2,0.5,0.5,0.6,0.8c2.2,4.4,9.6,5.7,11.8,0.6c0,0-2.6-23.1-20.7-15.6c-18.1,7.5-34.7,15.1-39.5,20.4
		c-3.1,3.4-4.6,7.9-4.2,12.4C592.3,621.4,597.7,628.2,602.9,628.4z"/>
	
		<linearGradient id="SVGID_22_" gradientUnits="userSpaceOnUse" x1="898.4083" y1="-113.9878" x2="888.3926" y2="-33.8397" gradientTransform="matrix(0.9402 -0.3405 -0.3405 -0.9402 -264.138 864.1502)">
		<stop  offset="0" style="stop-color:#F9B776"/>
		<stop  offset="1" style="stop-color:#F47960"/>
	</linearGradient>
	<path class="st21" d="M609.9,640l-5.4-14.8c0,0-10.4-4.8-9,3.3C597,636.5,606.2,640.9,609.9,640z"/>
	
		<linearGradient id="SVGID_23_" gradientUnits="userSpaceOnUse" x1="-4637.3105" y1="298.09" x2="-4524.1445" y2="298.09" gradientTransform="matrix(-1 0 0 -1 -3745.7002 1215.8898)">
		<stop  offset="0" style="stop-color:#2B3582"/>
		<stop  offset="1" style="stop-color:#150E42"/>
	</linearGradient>
	<path class="st22" d="M886.7,1042.1c0.7,0,1.3-0.1,1.9-0.4c2.5-1.1,3.6-3.9,2.6-6.4c0,0,0,0,0,0L787.9,796.5
		c-1.1-2.5-4-3.7-6.5-2.6c-2.5,1.1-3.7,4-2.6,6.5l103.3,238.8C882.9,1041,884.7,1042.1,886.7,1042.1z"/>
	
		<linearGradient id="SVGID_24_" gradientUnits="userSpaceOnUse" x1="-4624.1353" y1="298.0247" x2="-4511.0322" y2="298.0247" gradientTransform="matrix(-1 0 0 -1 -3745.7002 1215.8898)">
		<stop  offset="0" style="stop-color:#2B3582"/>
		<stop  offset="1" style="stop-color:#150E42"/>
	</linearGradient>
	<path class="st23" d="M770.3,1042.1c1.9,0,3.7-1.2,4.5-3l103.3-238.8c1-2.5-0.2-5.4-2.8-6.4c-2.4-1-5.2,0.1-6.3,2.5l-103.3,238.8
		c-1.1,2.5,0.1,5.4,2.6,6.4c0,0,0,0,0,0C768.9,1042,769.6,1042.1,770.3,1042.1z"/>
	
		<linearGradient id="SVGID_25_" gradientUnits="userSpaceOnUse" x1="-4332.2461" y1="298.025" x2="-4219.1431" y2="298.025" gradientTransform="matrix(-1 0 0 -1 -3745.7002 1215.8898)">
		<stop  offset="0" style="stop-color:#2B3582"/>
		<stop  offset="1" style="stop-color:#150E42"/>
	</linearGradient>
	<path class="st24" d="M581.6,1042.1c0.7,0,1.3-0.1,1.9-0.4c2.5-1.1,3.6-3.9,2.6-6.4c0,0,0,0,0,0L482.8,796.5
		c-1.1-2.5-4.1-3.5-6.5-2.4c-2.4,1.1-3.5,3.8-2.5,6.3l103.3,238.8C577.9,1041,579.7,1042.1,581.6,1042.1z"/>
	
		<linearGradient id="SVGID_26_" gradientUnits="userSpaceOnUse" x1="-4319.1377" y1="298.0781" x2="-4205.9678" y2="298.0781" gradientTransform="matrix(-1 0 0 -1 -3745.7002 1215.8898)">
		<stop  offset="0" style="stop-color:#2B3582"/>
		<stop  offset="1" style="stop-color:#150E42"/>
	</linearGradient>
	<path class="st25" d="M465.2,1042.1c1.9,0,3.7-1.2,4.5-3L573,800.3c1.1-2.5-0.1-5.4-2.6-6.4c0,0,0,0,0,0c-2.5-1.1-5.4,0.1-6.5,2.6
		l-103.3,238.8c-1.1,2.5,0.1,5.4,2.6,6.4c0,0,0,0,0,0C463.9,1042,464.6,1042.1,465.2,1042.1z"/>
	
		<linearGradient id="SVGID_27_" gradientUnits="userSpaceOnUse" x1="601.6404" y1="606.175" x2="1007.9485" y2="-470.5469" gradientTransform="matrix(1 0 0 -1 0 1215.8898)">
		<stop  offset="0" style="stop-color:#18459F"/>
		<stop  offset="1" style="stop-color:#2874B5"/>
	</linearGradient>
	<path class="st26" d="M425.8,786h492.5c4.6,0,8.3,3.7,8.3,8.3v3.9c0,4.6-3.7,8.3-8.3,8.3H425.8c-4.6,0-8.3-3.7-8.3-8.3v-3.9
		C417.5,789.7,421.2,786,425.8,786z"/>
	
		<linearGradient id="SVGID_28_" gradientUnits="userSpaceOnUse" x1="-4500.9722" y1="553.9806" x2="-4591.2588" y2="458.5625" gradientTransform="matrix(-1 0 0 -1 -3745.7002 1215.8898)">
		<stop  offset="0" style="stop-color:#2B3582"/>
		<stop  offset="1" style="stop-color:#150E42"/>
	</linearGradient>
	<path class="st27" d="M910.1,642.7H778.6c-9.7,0-18.5,5.6-22.7,14.4L695.1,786h163.5c6.3,0,11.9-3.8,14.2-9.6l47.1-119.3
		c2.1-5.4-0.5-11.5-5.9-13.6C912.8,642.9,911.5,642.7,910.1,642.7z"/>
	
		<linearGradient id="SVGID_29_" gradientUnits="userSpaceOnUse" x1="-4550.1973" y1="522.5204" x2="-4591.1675" y2="460.8353" gradientTransform="matrix(-1 0 0 -1 -3745.7002 1215.8898)">
		<stop  offset="0" style="stop-color:#53D8FF"/>
		<stop  offset="1" style="stop-color:#3840F7"/>
	</linearGradient>
	<path class="st28" d="M812.1,716.5c-2.8,8.9-0.7,17.5,4.7,19.2s12.2-4,15-12.9c2.8-8.9,0.7-17.5-4.7-19.2
		C821.7,701.9,814.9,707.6,812.1,716.5z"/>
</g>
</svg>
