<?xml version="1.0" encoding="utf-8"?>
<!-- Generator: Adobe Illustrator 24.3.0, SVG Export Plug-In . SVG Version: 6.00 Build 0)  -->
<svg version="1.1" id="Layer_1" xmlns="http://www.w3.org/2000/svg" xmlns:xlink="http://www.w3.org/1999/xlink" x="0px" y="0px"
	 viewBox="0 0 1031.7 1217.8" style="enable-background:new 0 0 1031.7 1217.8;" xml:space="preserve">
<style type="text/css">
	.st0{fill:url(#SVGID_1_);}
	.st1{fill:url(#SVGID_2_);stroke:#CCB849;stroke-miterlimit:10;}
	.st2{fill:url(#SVGID_3_);}
	.st3{fill:url(#SVGID_4_);}
	.st4{fill:url(#SVGID_5_);}
	.st5{fill:url(#SVGID_6_);}
	.st6{fill:url(#SVGID_7_);}
	.st7{fill:url(#SVGID_8_);}
	.st8{fill:url(#SVGID_9_);}
	.st9{fill:url(#SVGID_10_);}
	.st10{fill:url(#SVGID_11_);}
	.st11{fill:url(#SVGID_12_);}
	.st12{fill:url(#SVGID_13_);}
	.st13{fill:url(#SVGID_14_);}
	.st14{fill:url(#SVGID_15_);}
	.st15{fill:url(#SVGID_16_);}
	.st16{fill-rule:evenodd;clip-rule:evenodd;fill:url(#SVGID_17_);}
	.st17{fill-rule:evenodd;clip-rule:evenodd;fill:url(#SVGID_18_);}
	.st18{fill-rule:evenodd;clip-rule:evenodd;fill:url(#SVGID_19_);}
	.st19{fill-rule:evenodd;clip-rule:evenodd;fill:url(#SVGID_20_);}
	.st20{fill-rule:evenodd;clip-rule:evenodd;fill:url(#SVGID_21_);}
	.st21{fill-rule:evenodd;clip-rule:evenodd;fill:url(#SVGID_22_);}
	.st22{fill:url(#SVGID_23_);}
	.st23{fill:url(#SVGID_24_);}
	.st24{fill:url(#SVGID_25_);}
	.st25{fill:url(#SVGID_26_);}
	.st26{fill:url(#SVGID_27_);}
	.st27{fill:url(#SVGID_28_);}
	.st28{fill:url(#SVGID_29_);}
</style>
<g id="Layer_2_1_">
	<g id="Layer_1-2">
		<linearGradient id="SVGID_1_" gradientUnits="userSpaceOnUse" x1="201.9425" y1="327.8803" x2="-380.1851" y2="-53.5665">
			<stop  offset="0" style="stop-color:#C2AD3A"/>
			<stop  offset="0.2492" style="stop-color:#D3C155"/>
		</linearGradient>
		<path class="st0" d="M824.1,495.2c-136.3-58.9-311.6-94.4-502.8-94.4c-114.3,0-222.9,12.7-320.8,35.4V0l0.2,0.6
			c97.7,241.7,335.4,346.4,505.9,391C592.1,413.9,713.6,441.9,824.1,495.2z"/>
		<linearGradient id="SVGID_2_" gradientUnits="userSpaceOnUse" x1="235.7642" y1="661.2612" x2="1055.3386" y2="1421.0909">
			<stop  offset="0" style="stop-color:#C2AD3A"/>
			<stop  offset="0.569" style="stop-color:#CBB748"/>
			<stop  offset="1" style="stop-color:#D3C155"/>
		</linearGradient>
		<path class="st1" d="M1031.2,808.3c0,134.6-79.1,251.3-194.8,309.3c-15,6.8-30.5,13.2-46.5,19.4l0,0c-2.5,1-5,1.9-7.5,2.9
			c-129.5,48.8-288.8,77.5-461,77.5c-114.3,0-222.9-12.6-320.8-35.3V436.2c98-22.8,206.5-35.4,320.8-35.4
			c165.2,0,318.5,26.5,445,71.6c19.9,7.1,39.2,14.7,57.8,22.7c23.9,10.2,46.6,23,67.6,38.2c15.1,11.2,29.2,23.6,42.3,37.1
			c14.4,14.9,27.5,31,39.1,48.2c11.6,17.2,21.7,35.5,30,54.5c17,39.1,26.5,81,27.9,123.6C1031.1,800.6,1031.2,804.4,1031.2,808.3z"
			/>
	</g>
</g>
<g>
	
		<linearGradient id="SVGID_3_" gradientUnits="userSpaceOnUse" x1="-4398.7788" y1="248.414" x2="-4371.1191" y2="422.434" gradientTransform="matrix(-1 0 0 -1 -3745.7 1215.8898)">
		<stop  offset="0" style="stop-color:#2B3582"/>
		<stop  offset="1" style="stop-color:#150E42"/>
	</linearGradient>
	<rect x="636.7" y="835.4" class="st2" width="12.8" height="138.4"/>
	
		<linearGradient id="SVGID_4_" gradientUnits="userSpaceOnUse" x1="-4387.6826" y1="246.6529" x2="-4360.0127" y2="420.6729" gradientTransform="matrix(-1 0 0 -1 -3745.7002 1215.8898)">
		<stop  offset="0" style="stop-color:#2B3582"/>
		<stop  offset="1" style="stop-color:#150E42"/>
	</linearGradient>
	<path class="st3" d="M587,976.5h112.1c0-4.6-3.7-8.3-8.3-8.3c0,0,0,0,0,0h-95.4C590.8,968.2,587,971.9,587,976.5
		C587,976.5,587,976.5,587,976.5L587,976.5z"/>
	
		<linearGradient id="SVGID_5_" gradientUnits="userSpaceOnUse" x1="-4409.0522" y1="250.0528" x2="-4381.3921" y2="424.0728" gradientTransform="matrix(-1 0 0 -1 -3745.7002 1215.8898)">
		<stop  offset="0" style="stop-color:#53D8FF"/>
		<stop  offset="1" style="stop-color:#3840F7"/>
	</linearGradient>
	<path class="st4" d="M584.2,804.4h113.4c7.6,0,13.8,6.2,13.8,13.8c0,0,0,0,0,0v12.5c0,7.6-6.2,13.8-13.8,13.8c0,0,0,0,0,0H584.2
		c-7.6,0-13.8-6.2-13.8-13.8l0,0v-12.5C570.4,810.6,576.5,804.4,584.2,804.4C584.2,804.4,584.2,804.4,584.2,804.4z"/>
	
		<linearGradient id="SVGID_6_" gradientUnits="userSpaceOnUse" x1="-1077.0532" y1="361.3922" x2="-1029.6632" y2="361.3922" gradientTransform="matrix(-1 -2.000000e-02 2.000000e-02 -1 -373.9078 1205.4998)">
		<stop  offset="0" style="stop-color:#F9B776"/>
		<stop  offset="1" style="stop-color:#F47960"/>
	</linearGradient>
	<path class="st5" d="M694.3,817.6c24.5,33.8,17.5,70.3-31.7,94.8c-3.5-3.2-4.4-6.1-1-12.8c39.2-28.2,33.2-53.8,9.1-70.1
		L694.3,817.6z"/>
	
		<linearGradient id="SVGID_7_" gradientUnits="userSpaceOnUse" x1="-1377.0433" y1="452.2778" x2="-1329.2234" y2="452.2778" gradientTransform="matrix(-0.99 -0.14 0.14 -0.99 -775.7846 1132.1609)">
		<stop  offset="0" style="stop-color:#F9B776"/>
		<stop  offset="1" style="stop-color:#F47960"/>
	</linearGradient>
	<path class="st6" d="M643.1,833c19.6,35,15.3,62.3-41.1,80.5c-3.1-8-1.8-12.4,3-14c42.7-21.5,31.8-38.3,10.6-56.5L643.1,833z"/>
	
		<linearGradient id="SVGID_8_" gradientUnits="userSpaceOnUse" x1="-2451.8311" y1="892.3466" x2="-2426.3728" y2="892.3466" gradientTransform="matrix(0.5875 -0.8092 -0.8092 -0.5875 2753.8647 -535.6839)">
		<stop  offset="0" style="stop-color:#2C759E"/>
		<stop  offset="1" style="stop-color:#051042"/>
	</linearGradient>
	<path class="st7" d="M602,901.1c-1.6,6.8-0.9,10.3,4.3,11.7c3.1,11.1,1.4,17.2-3.9,19.6c-6.6-9.4-11.6-19.4-13.2-30.9
		C594.1,899.7,600.9,898.1,602,901.1z"/>
	
		<linearGradient id="SVGID_9_" gradientUnits="userSpaceOnUse" x1="-2415.4912" y1="844.9634" x2="-2390.188" y2="844.9634" gradientTransform="matrix(0.5875 -0.8092 -0.8092 -0.5875 2753.8647 -535.6839)">
		<stop  offset="0" style="stop-color:#2C759E"/>
		<stop  offset="1" style="stop-color:#051042"/>
	</linearGradient>
	<path class="st8" d="M661.7,899.7c-1.6,6.7-0.8,10.2,4.2,11.6c3.1,11,1.4,17.1-3.9,19.5c-6.5-9.3-11.5-19.3-13.1-30.7
		C653.8,898.3,660.5,896.7,661.7,899.7z"/>
	
		<linearGradient id="SVGID_10_" gradientUnits="userSpaceOnUse" x1="-340.5591" y1="359.7095" x2="-238.9791" y2="359.7095" gradientTransform="matrix(-0.98 0.21 -0.21 -0.98 440.7368 1213.322)">
		<stop  offset="0" style="stop-color:#2B3582"/>
		<stop  offset="1" style="stop-color:#150E42"/>
	</linearGradient>
	<path class="st9" d="M590.5,770.1c-3.3,22.8,6.9,51.8,24.8,75.6c12.8,1.4,26.6,0.2,37.3-6.5l-13.5-30.7l6.4-1.9l26.5,27.2
		c12,1.8,19.9-4.3,29.3-10.4c-10.4-22.9-34-33.6-40.2-65.7L590.5,770.1z"/>
	
		<linearGradient id="SVGID_11_" gradientUnits="userSpaceOnUse" x1="-4252.8257" y1="555.7345" x2="-4366.3955" y2="524.6045" gradientTransform="matrix(-1 -5.000000e-02 5.000000e-02 -1 -3659.5945 1073.0697)">
		<stop  offset="0" style="stop-color:#2B3582"/>
		<stop  offset="1" style="stop-color:#150E42"/>
	</linearGradient>
	<path class="st10" d="M639.3,765.7h0.3l141-0.2c3.5,0.1,6.4-2.6,6.6-6.1c0.1-3.5-2.6-6.4-6.1-6.6c-0.2,0-0.3,0-0.5,0l-141,0.2
		c-3.5,0-6.3,2.9-6.3,6.4C633.3,762.7,635.9,765.5,639.3,765.7L639.3,765.7z"/>
	
		<linearGradient id="SVGID_12_" gradientUnits="userSpaceOnUse" x1="635.9794" y1="478.8359" x2="986.8194" y2="484.6859" gradientTransform="matrix(1 0 0 -1 0 1215.8898)">
		<stop  offset="0" style="stop-color:#F9B776"/>
		<stop  offset="1" style="stop-color:#F47960"/>
	</linearGradient>
	<path class="st11" d="M680.4,716.1c0,0,9,46.8,12.3,46.8s64.7-7.4,64.7-7.4v-13.3l-48.5,1.8l-11.7-34.8L680.4,716.1z"/>
	
		<linearGradient id="SVGID_13_" gradientUnits="userSpaceOnUse" x1="655.5143" y1="456.5995" x2="704.6494" y2="456.5995" gradientTransform="matrix(1 0 0 -1 0 1215.8898)">
		<stop  offset="0" style="stop-color:#2B3582"/>
		<stop  offset="1" style="stop-color:#150E42"/>
	</linearGradient>
	<path class="st12" d="M655.6,770.7h49c0,0-11.1-23.9-31.5-22.7S655.6,770.7,655.6,770.7z"/>
	
		<linearGradient id="SVGID_14_" gradientUnits="userSpaceOnUse" x1="660.724" y1="470.9087" x2="397.574" y2="734.0587" gradientTransform="matrix(1 0 0 -1 0 1215.8898)">
		<stop  offset="0" style="stop-color:#CB236D"/>
		<stop  offset="1" style="stop-color:#4C246D"/>
	</linearGradient>
	<path class="st13" d="M668.8,766.4h-82l5-58.1c0,0-6.1-43.8,21.9-48.7c16.5-4.5,16.5-4.4,16.5-4.4s21.1-3.3,38.7,4.5
		s32.1,54.6,32.1,54.6l-21.1,8.4l-5.4-17.4L668.8,766.4z"/>
	
		<linearGradient id="SVGID_15_" gradientUnits="userSpaceOnUse" x1="634.8055" y1="479.8376" x2="598.7654" y2="558.5576" gradientTransform="matrix(1 0 0 -1 0 1215.8898)">
		<stop  offset="0" style="stop-color:#CB236D"/>
		<stop  offset="1" style="stop-color:#4C246D"/>
	</linearGradient>
	<path class="st14" d="M622.8,718.6c-0.1,0-0.2-0.1-0.3-0.2c-0.1-0.2-0.1-0.4,0.1-0.5c0,0,0,0,0,0l3.4-2.5L615,685.2
		c0-0.2,0.1-0.4,0.3-0.5c0.2,0,0.4,0,0.4,0.2l11,30.4c0.1,0.2,0,0.3-0.1,0.4l-3.6,2.7C622.9,718.6,622.8,718.6,622.8,718.6z"/>
	
		<linearGradient id="SVGID_16_" gradientUnits="userSpaceOnUse" x1="549.9694" y1="473.6335" x2="978.4794" y2="480.7734" gradientTransform="matrix(1 0 0 -1 0 1215.8898)">
		<stop  offset="0" style="stop-color:#F9B776"/>
		<stop  offset="1" style="stop-color:#F47960"/>
	</linearGradient>
	<path class="st15" d="M604.4,726.7l18.4-8.5l16.3,28.6c0,0,46-7.2,54.2,1.5s4.3,8.6,3.3,8.6s-5.8-5.1-5.8-5.1s4.2,6.2,1.9,6.5
		s-7.7-5.6-7.7-5.6s4.5,7.8,1.8,6.9s-4.8-5.1-4.8-5.1s3.6,5,1.2,5.2s-6.1-4.1-6.1-4.1s-5.7,2.6-8.9,2.6s-36.1,8.2-42,4.8
		S604.4,726.7,604.4,726.7z"/>
	
		<linearGradient id="SVGID_17_" gradientUnits="userSpaceOnUse" x1="978.342" y1="-116.8524" x2="966.892" y2="-25.2624" gradientTransform="matrix(0.9402 -0.3405 -0.3405 -0.9402 -264.138 864.1502)">
		<stop  offset="0" style="stop-color:#F9B776"/>
		<stop  offset="1" style="stop-color:#F47960"/>
	</linearGradient>
	<path class="st16" d="M677.6,614.1c0,0-2.3-6.4,3.5-7.5s0.3,15.8,0.3,15.8L677.6,614.1z"/>
	
		<linearGradient id="SVGID_18_" gradientUnits="userSpaceOnUse" x1="629.2519" y1="521.4233" x2="651.6019" y2="605.2633" gradientTransform="matrix(1 0 0 -1 0 1215.8898)">
		<stop  offset="0" style="stop-color:#F9B776"/>
		<stop  offset="1" style="stop-color:#F47960"/>
	</linearGradient>
	<path class="st17" d="M631.4,631.4l-2.3,25c0,0,13.2,7.7,24.6,1l-2-21.9L631.4,631.4z"/>
	
		<linearGradient id="SVGID_19_" gradientUnits="userSpaceOnUse" x1="1516.0624" y1="250.0275" x2="1271.9624" y2="-12.2325" gradientTransform="matrix(0.9 -0.43 -0.43 -0.9 -413.4874 844.2708)">
		<stop  offset="0" style="stop-color:#CB236D"/>
		<stop  offset="1" style="stop-color:#4C246D"/>
	</linearGradient>
	<path class="st18" d="M680.3,613.6c4.2-2.1,2.7-18.6,2.7-22.4c-0.8,1-2,1.6-3.3,1.4c3.4-7.6,1-16.5-1.9-24.3c-2,2.2-6.1,4.9-9.2,4
		c0.9-2.1,1-4.5,0.4-6.8c-2.6,3.1-6.6,4.5-10.5,3.8c1.2-2.3,0.6-5.2-1.6-6.8c-6.8,4.4-14.1,8-21.6,10.8c-8.7,3.3-18.3,5.8-24.4,12.9
		s-6.4,16-5.2,24.7c0.7,4.7,1.1,9.4,2.9,13.9c5.2,12.5,17.2,14,28.9,9.5L680.3,613.6z"/>
	
		<linearGradient id="SVGID_20_" gradientUnits="userSpaceOnUse" x1="949.4471" y1="-112.3917" x2="940.3671" y2="-39.7017" gradientTransform="matrix(0.9402 -0.3405 -0.3405 -0.9402 -264.138 864.1502)">
		<stop  offset="0" style="stop-color:#F9B776"/>
		<stop  offset="1" style="stop-color:#F47960"/>
	</linearGradient>
	<path class="st19" d="M669.5,592.9c0,0,27.6,41.5-0.9,54.3c-26.9,12-38.2-15.6-38.2-15.6s-11.8-12.3-7.9-21.7
		C626.5,600.4,662.8,587.7,669.5,592.9z"/>
	
		<linearGradient id="SVGID_21_" gradientUnits="userSpaceOnUse" x1="1358.825" y1="378.942" x2="1130.0449" y2="133.1421" gradientTransform="matrix(0.9402 -0.3405 -0.3405 -0.9402 -264.138 864.1502)">
		<stop  offset="0" style="stop-color:#CB236D"/>
		<stop  offset="1" style="stop-color:#4C246D"/>
	</linearGradient>
	<path class="st20" d="M627.7,624.9c0.3,0,0.6,0,0.9,0c2.5-0.4,7-3.5,9.4-4.7c9.8-5.2,18.4-12.6,24.9-21.6c0.3-0.4,0.8-0.9,1.3-0.7
		c0.3,0.2,0.5,0.4,0.6,0.7c2,3.9,8.6,5.1,10.5,0.5c0,0-2.3-20.6-18.5-13.9s-31,13.5-35.3,18.2c-2.8,3-4.1,7-3.8,11.1
		C618.3,618.7,623.1,624.8,627.7,624.9z"/>
	
		<linearGradient id="SVGID_22_" gradientUnits="userSpaceOnUse" x1="922.6454" y1="-114.8557" x2="913.7054" y2="-43.3157" gradientTransform="matrix(0.9402 -0.3405 -0.3405 -0.9402 -264.138 864.1502)">
		<stop  offset="0" style="stop-color:#F9B776"/>
		<stop  offset="1" style="stop-color:#F47960"/>
	</linearGradient>
	<path class="st21" d="M634,635.3l-4.8-13.2c0,0-9.3-4.3-8,2.9S630.7,636.1,634,635.3z"/>
	
		<linearGradient id="SVGID_23_" gradientUnits="userSpaceOnUse" x1="-4631.1577" y1="332.6384" x2="-4530.1455" y2="332.6384" gradientTransform="matrix(-1 0 0 -1 -3745.7002 1215.8898)">
		<stop  offset="0" style="stop-color:#2B3582"/>
		<stop  offset="1" style="stop-color:#150E42"/>
	</linearGradient>
	<path class="st22" d="M881.1,994.2c0.6,0,1.2-0.1,1.7-0.3c2.2-0.9,3.3-3.5,2.3-5.7c0,0,0,0,0,0L792.9,775c-1-2.2-3.5-3.3-5.8-2.3
		s-3.3,3.5-2.3,5.8L877,991.6C877.7,993.2,879.3,994.2,881.1,994.2z"/>
	
		<linearGradient id="SVGID_24_" gradientUnits="userSpaceOnUse" x1="-4619.3975" y1="332.5801" x2="-4518.4414" y2="332.5801" gradientTransform="matrix(-1 0 0 -1 -3745.7002 1215.8898)">
		<stop  offset="0" style="stop-color:#2B3582"/>
		<stop  offset="1" style="stop-color:#150E42"/>
	</linearGradient>
	<path class="st23" d="M777.2,994.2c1.7,0,3.3-1,4-2.6l92.2-213.2c0.9-2.3-0.2-4.8-2.5-5.7c-2.2-0.9-4.6,0.1-5.6,2.2l-92.2,213.2
		c-1,2.2,0.1,4.8,2.3,5.7c0,0,0,0,0,0C776,994.1,776.6,994.2,777.2,994.2z"/>
	
		<linearGradient id="SVGID_25_" gradientUnits="userSpaceOnUse" x1="-4358.8574" y1="332.5803" x2="-4257.9023" y2="332.5803" gradientTransform="matrix(-1 0 0 -1 -3745.7002 1215.8898)">
		<stop  offset="0" style="stop-color:#2B3582"/>
		<stop  offset="1" style="stop-color:#150E42"/>
	</linearGradient>
	<path class="st24" d="M608.8,994.2c0.6,0,1.2-0.1,1.7-0.3c2.2-0.9,3.3-3.5,2.3-5.7c0,0,0,0,0,0L520.6,775c-1-2.2-3.6-3.2-5.8-2.1
		c-2.1,1-3.1,3.4-2.2,5.6l92.2,213.2C605.4,993.2,607,994.2,608.8,994.2z"/>
	
		<linearGradient id="SVGID_26_" gradientUnits="userSpaceOnUse" x1="-4347.1572" y1="332.6278" x2="-4246.1416" y2="332.6278" gradientTransform="matrix(-1 0 0 -1 -3745.7002 1215.8898)">
		<stop  offset="0" style="stop-color:#2B3582"/>
		<stop  offset="1" style="stop-color:#150E42"/>
	</linearGradient>
	<path class="st25" d="M504.9,994.2c1.7,0,3.3-1,4-2.6l92.2-213.2c1-2.2-0.1-4.8-2.3-5.7c0,0,0,0,0,0c-2.2-1-4.8,0.1-5.8,2.3
		l-92.2,213.2c-1,2.2,0.1,4.8,2.3,5.7c0,0,0,0,0,0C503.7,994.1,504.3,994.2,504.9,994.2z"/>
	
		<linearGradient id="SVGID_27_" gradientUnits="userSpaceOnUse" x1="626.6307" y1="607.6345" x2="989.3006" y2="-353.4456" gradientTransform="matrix(1 0 0 -1 0 1215.8898)">
		<stop  offset="0" style="stop-color:#18459F"/>
		<stop  offset="1" style="stop-color:#2874B5"/>
	</linearGradient>
	<path class="st26" d="M469.7,765.6h439.6c4.1,0,7.4,3.3,7.4,7.4v3.5c0,4.1-3.3,7.4-7.4,7.4H469.7c-4.1,0-7.4-3.3-7.4-7.4V773
		C462.3,768.9,465.6,765.6,469.7,765.6z"/>
	
		<linearGradient id="SVGID_28_" gradientUnits="userSpaceOnUse" x1="-4509.4619" y1="561.0458" x2="-4590.0518" y2="475.8759" gradientTransform="matrix(-1 0 0 -1 -3745.7002 1215.8898)">
		<stop  offset="0" style="stop-color:#2B3582"/>
		<stop  offset="1" style="stop-color:#150E42"/>
	</linearGradient>
	<path class="st27" d="M902,637.7H784.6c-8.7,0-16.5,5-20.2,12.8l-54.3,115.1H856c5.6,0,10.6-3.4,12.7-8.6l42.1-106.5
		c1.9-4.8-0.5-10.3-5.3-12.2C904.3,637.9,903.2,637.7,902,637.7z"/>
	
		<linearGradient id="SVGID_29_" gradientUnits="userSpaceOnUse" x1="-4553.4004" y1="532.9645" x2="-4589.9707" y2="477.9045" gradientTransform="matrix(-1 0 0 -1 -3745.7002 1215.8898)">
		<stop  offset="0" style="stop-color:#53D8FF"/>
		<stop  offset="1" style="stop-color:#3840F7"/>
	</linearGradient>
	<path class="st28" d="M814.5,703.6c-2.5,7.9-0.7,15.6,4.2,17.1s10.9-3.6,13.4-11.5s0.7-15.6-4.2-17.2S817,695.7,814.5,703.6z"/>
</g>
</svg>
