<svg xmlns="http://www.w3.org/2000/svg" xmlns:xlink="http://www.w3.org/1999/xlink" viewBox="0 0 454.38 431.75"><defs><style>.cls-1{fill:url(#linear-gradient);}.cls-2{fill:url(#linear-gradient-2);}.cls-3{fill:url(#linear-gradient-3);}.cls-4{fill:url(#linear-gradient-4);}.cls-5{fill:url(#linear-gradient-5);}.cls-6{fill:url(#linear-gradient-6);}.cls-7{fill:url(#linear-gradient-7);}.cls-8{fill:url(#linear-gradient-8);}.cls-9{fill:url(#linear-gradient-9);}.cls-10{fill:url(#linear-gradient-10);}.cls-11{fill:url(#linear-gradient-11);}.cls-12{fill:url(#linear-gradient-12);}.cls-13{fill:url(#linear-gradient-13);}.cls-14{fill:url(#linear-gradient-14);}.cls-15,.cls-16,.cls-17,.cls-18,.cls-19,.cls-20{fill-rule:evenodd;}.cls-15{fill:url(#linear-gradient-15);}.cls-16{fill:url(#linear-gradient-16);}.cls-17{fill:url(#linear-gradient-17);}.cls-18{fill:url(#linear-gradient-18);}.cls-19{fill:url(#linear-gradient-19);}.cls-20{fill:url(#linear-gradient-20);}.cls-21{fill:url(#linear-gradient-21);}.cls-22{fill:url(#linear-gradient-22);}.cls-23{fill:url(#linear-gradient-23);}.cls-24{fill:url(#linear-gradient-24);}.cls-25{fill:url(#linear-gradient-25);}.cls-26{fill:url(#linear-gradient-26);}.cls-27{fill:url(#linear-gradient-27);}</style><linearGradient id="linear-gradient" x1="-7116.56" y1="142.36" x2="-7088.9" y2="316.38" gradientTransform="translate(-6925.74 547.37) rotate(180)" gradientUnits="userSpaceOnUse"><stop offset="0" stop-color="#2b3582"/><stop offset="1" stop-color="#150e42"/></linearGradient><linearGradient id="linear-gradient-2" x1="-7105.46" y1="140.6" x2="-7077.79" y2="314.62" xlink:href="#linear-gradient"/><linearGradient id="linear-gradient-3" x1="-7126.83" y1="144" x2="-7099.17" y2="318.02" gradientTransform="translate(-6925.74 547.37) rotate(180)" gradientUnits="userSpaceOnUse"><stop offset="0" stop-color="#53d8ff"/><stop offset="1" stop-color="#3840f7"/></linearGradient><linearGradient id="linear-gradient-4" x1="-3789.82" y1="277.79" x2="-3742.43" y2="277.79" gradientTransform="translate(-3547.26 505.18) rotate(-178.85)" gradientUnits="userSpaceOnUse"><stop offset="0" stop-color="#f9b776"/><stop offset="1" stop-color="#f47960"/></linearGradient><linearGradient id="linear-gradient-5" x1="-4051.92" y1="501.94" x2="-4004.1" y2="501.94" gradientTransform="translate(-3893.12 244.38) rotate(-171.95)" xlink:href="#linear-gradient-4"/><linearGradient id="linear-gradient-6" x1="-3194.62" y1="-220.45" x2="-3169.16" y2="-220.45" gradientTransform="matrix(0.59, -0.81, -0.81, -0.59, 1827.5, -2353)" gradientUnits="userSpaceOnUse"><stop offset="0" stop-color="#2c759e"/><stop offset="1" stop-color="#051042"/></linearGradient><linearGradient id="linear-gradient-7" x1="-3158.28" y1="-267.83" x2="-3132.98" y2="-267.83" xlink:href="#linear-gradient-6"/><linearGradient id="linear-gradient-8" x1="-3078.54" y1="12.32" x2="-2976.96" y2="12.32" gradientTransform="matrix(-0.98, 0.21, -0.21, -0.98, -2777.69, 885.39)" xlink:href="#linear-gradient"/><linearGradient id="linear-gradient-9" x1="-6956.41" y1="505.36" x2="-7069.98" y2="474.23" gradientTransform="matrix(-1, -0.05, 0.05, -1, -6822.92, 325.05)" xlink:href="#linear-gradient"/><linearGradient id="linear-gradient-10" x1="173.72" y1="372.78" x2="524.56" y2="378.63" gradientTransform="matrix(1, 0, 0, -1, 0, 547.37)" xlink:href="#linear-gradient-4"/><linearGradient id="linear-gradient-11" x1="193.25" y1="350.55" x2="242.39" y2="350.55" gradientTransform="matrix(1, 0, 0, -1, 0, 547.37)" xlink:href="#linear-gradient"/><linearGradient id="linear-gradient-12" x1="198.46" y1="364.85" x2="-64.69" y2="628" gradientTransform="matrix(1, 0, 0, -1, 0, 547.37)" gradientUnits="userSpaceOnUse"><stop offset="0" stop-color="#cb236d"/><stop offset="1" stop-color="#4c246d"/></linearGradient><linearGradient id="linear-gradient-13" x1="172.55" y1="373.78" x2="136.51" y2="452.5" xlink:href="#linear-gradient-12"/><linearGradient id="linear-gradient-14" x1="87.71" y1="367.58" x2="516.22" y2="374.72" gradientTransform="matrix(1, 0, 0, -1, 0, 547.37)" xlink:href="#linear-gradient-4"/><linearGradient id="linear-gradient-15" x1="526.39" y1="-620.6" x2="514.94" y2="-529.01" gradientTransform="matrix(0.94, -0.34, -0.34, -0.94, -473.01, -325.86)" xlink:href="#linear-gradient-4"/><linearGradient id="linear-gradient-16" x1="166.99" y1="415.37" x2="189.34" y2="499.21" gradientTransform="matrix(1, 0, 0, -1, 0, 547.37)" xlink:href="#linear-gradient-4"/><linearGradient id="linear-gradient-17" x1="1044.86" y1="-365.22" x2="800.76" y2="-627.48" gradientTransform="matrix(0.9, -0.43, -0.43, -0.9, -716.22, -474.53)" xlink:href="#linear-gradient-12"/><linearGradient id="linear-gradient-18" x1="497.49" y1="-616.14" x2="488.41" y2="-543.45" gradientTransform="matrix(0.94, -0.34, -0.34, -0.94, -473.01, -325.86)" xlink:href="#linear-gradient-4"/><linearGradient id="linear-gradient-19" x1="906.87" y1="-124.8" x2="678.09" y2="-370.6" gradientTransform="matrix(0.94, -0.34, -0.34, -0.94, -473.01, -325.86)" xlink:href="#linear-gradient-12"/><linearGradient id="linear-gradient-20" x1="470.69" y1="-618.6" x2="461.75" y2="-547.06" gradientTransform="matrix(0.94, -0.34, -0.34, -0.94, -473.01, -325.86)" xlink:href="#linear-gradient-4"/><linearGradient id="linear-gradient-21" x1="-7348.93" y1="226.58" x2="-7247.92" y2="226.58" xlink:href="#linear-gradient"/><linearGradient id="linear-gradient-22" x1="-7337.17" y1="226.53" x2="-7236.22" y2="226.53" xlink:href="#linear-gradient"/><linearGradient id="linear-gradient-23" x1="-7076.63" y1="226.53" x2="-6975.68" y2="226.53" xlink:href="#linear-gradient"/><linearGradient id="linear-gradient-24" x1="-7064.93" y1="226.57" x2="-6963.92" y2="226.57" xlink:href="#linear-gradient"/><linearGradient id="linear-gradient-25" x1="164.37" y1="501.58" x2="527.04" y2="-459.5" gradientTransform="matrix(1, 0, 0, -1, 0, 547.37)" gradientUnits="userSpaceOnUse"><stop offset="0" stop-color="#18459f"/><stop offset="1" stop-color="#2874b5"/></linearGradient><linearGradient id="linear-gradient-26" x1="-7227.24" y1="454.99" x2="-7307.83" y2="369.82" xlink:href="#linear-gradient"/><linearGradient id="linear-gradient-27" x1="-7271.18" y1="426.91" x2="-7307.75" y2="371.85" xlink:href="#linear-gradient-3"/></defs><g id="Layer_2" data-name="Layer 2"><g id="Layer_1-2" data-name="Layer 1"><rect class="cls-1" x="174.43" y="272.95" width="12.8" height="138.42"/><path class="cls-2" d="M124.77,414H236.88a8.33,8.33,0,0,0-8.32-8.34H133.11a8.33,8.33,0,0,0-8.34,8.32v0Z"/><path class="cls-3" d="M121.9,241.93H235.32a13.78,13.78,0,0,1,13.77,13.77h0v12.45a13.77,13.77,0,0,1-13.77,13.77H121.9a13.77,13.77,0,0,1-13.77-13.77h0V255.69a13.76,13.76,0,0,1,13.76-13.76Z"/><path class="cls-4" d="M232.07,255.14c24.52,33.79,17.47,70.26-31.7,94.81-3.46-3.15-4.43-6.1-1-12.75,39.18-28.21,33.19-53.82,9.1-70.07Z"/><path class="cls-5" d="M180.87,270.51c19.63,35,15.34,62.35-41.09,80.45-3.09-8-1.81-12.42,3-14,42.72-21.46,31.82-38.32,10.62-56.52Z"/><path class="cls-6" d="M139.78,338.63c-1.61,6.76-.86,10.26,4.27,11.66,3.09,11.07,1.38,17.2-3.91,19.64-6.59-9.36-11.58-19.41-13.19-30.91C131.84,337.21,138.62,335.64,139.78,338.63Z"/><path class="cls-7" d="M199.41,337.2c-1.6,6.72-.85,10.19,4.24,11.59,3.07,11,1.38,17.1-3.88,19.52-6.55-9.31-11.51-19.3-13.12-30.72C191.52,335.79,198.25,334.22,199.41,337.2Z"/><path class="cls-8" d="M128.24,207.59c-3.34,22.84,6.86,51.81,24.85,75.56,12.75,1.41,26.6.2,37.3-6.53l-13.54-30.69,6.38-1.91,26.49,27.2c12,1.75,19.94-4.31,29.28-10.43-10.4-22.93-34.05-33.64-40.15-65.66Z"/><path class="cls-9" d="M177,203.2h.33L318.28,203a6.31,6.31,0,1,0,.5-12.61,4.17,4.17,0,0,0-.5,0l-141,.15a6.31,6.31,0,0,0-.31,12.61Z"/><path class="cls-10" d="M218.11,153.67s9,46.77,12.29,46.77,64.68-7.37,64.68-7.37V179.74l-48.48,1.79-11.66-34.76Z"/><path class="cls-11" d="M193.39,208.21h49s-11.12-23.89-31.48-22.73S193.39,208.21,193.39,208.21Z"/><path class="cls-12" d="M206.54,203.94h-82l5-58.11S123.41,102,151.4,97.11c16.48-4.48,16.48-4.44,16.48-4.44s21.09-3.28,38.72,4.5,32.12,54.57,32.12,54.57l-21.09,8.44-5.37-17.42Z"/><path class="cls-13" d="M160.5,156.13a.38.38,0,0,1-.31-.16.36.36,0,0,1,.07-.52h0l3.39-2.55-10.94-30.15a.39.39,0,0,1,.29-.47.4.4,0,0,1,.44.21l11,30.42a.39.39,0,0,1-.13.43l-3.6,2.72A.35.35,0,0,1,160.5,156.13Z"/><path class="cls-14" d="M142.1,164.21l18.4-8.47,16.27,28.58s46-7.16,54.18,1.53,4.35,8.56,3.33,8.56-5.76-5.09-5.76-5.09,4.15,6.24,1.92,6.52-7.67-5.62-7.67-5.62,4.48,7.79,1.79,6.9-4.85-5.11-4.85-5.11,3.57,5,1.15,5.18-6.14-4.12-6.14-4.12-5.68,2.58-8.94,2.58-36.11,8.2-42,4.79S142.1,164.21,142.1,164.21Z"/><path class="cls-15" d="M215.34,51.61s-2.27-6.39,3.5-7.53.27,15.83.27,15.83Z"/><path class="cls-16" d="M169.18,69,166.9,94s13.21,7.72,24.59,1l-2-21.87Z"/><path class="cls-17" d="M218,51.14c4.15-2.08,2.69-18.56,2.72-22.42a3.4,3.4,0,0,1-3.31,1.37c3.42-7.62,1-16.5-1.92-24.32-2,2.22-6.09,4.92-9.15,4A10.66,10.66,0,0,0,206.76,3a11,11,0,0,1-10.48,3.77A5.29,5.29,0,0,0,194.69,0a115.18,115.18,0,0,1-21.64,10.83c-8.72,3.26-18.35,5.8-24.41,12.86s-6.39,16-5.18,24.65c.66,4.73,1.07,9.41,2.94,13.91,5.18,12.46,17.23,14,28.9,9.46Z"/><path class="cls-18" d="M207.29,30.4s27.58,41.54-.91,54.27c-26.89,12-38.22-15.58-38.22-15.58s-11.82-12.25-7.85-21.68S200.57,25.23,207.29,30.4Z"/><path class="cls-19" d="M165.48,62.44a4.61,4.61,0,0,0,.91,0c2.47-.36,7-3.45,9.44-4.72a72.59,72.59,0,0,0,24.89-21.64c.3-.42.77-.9,1.25-.71a1.41,1.41,0,0,1,.57.7c2,3.89,8.61,5.07,10.51.54,0,0-2.32-20.63-18.5-13.94s-31,13.48-35.29,18.24A14.36,14.36,0,0,0,155.5,52C156,56.25,160.83,62.32,165.48,62.44Z"/><path class="cls-20" d="M171.72,72.8l-4.79-13.18s-9.26-4.26-8,2.91S168.41,73.66,171.72,72.8Z"/><path class="cls-21" d="M418.8,431.75a4.51,4.51,0,0,0,1.74-.35,4.37,4.37,0,0,0,2.31-5.73v0L330.62,212.49a4.39,4.39,0,1,0-8.08,3.45l92.18,213.17A4.4,4.4,0,0,0,418.8,431.75Z"/><path class="cls-22" d="M314.92,431.75a4.42,4.42,0,0,0,4-2.64l92.21-213.17a4.39,4.39,0,0,0-8.07-3.45L310.84,425.65a4.36,4.36,0,0,0,2.28,5.74h0A4.35,4.35,0,0,0,314.92,431.75Z"/><path class="cls-23" d="M146.5,431.75a4.51,4.51,0,0,0,1.74-.35,4.37,4.37,0,0,0,2.31-5.73v0L58.32,212.49a4.39,4.39,0,0,0-8.07,3.45l92.21,213.17A4.42,4.42,0,0,0,146.5,431.75Z"/><path class="cls-24" d="M42.62,431.75a4.4,4.4,0,0,0,4-2.64l92.22-213.17a4.36,4.36,0,0,0-2.28-5.73h0a4.41,4.41,0,0,0-5.78,2.29L38.54,425.65a4.36,4.36,0,0,0,2.28,5.74h0A4.35,4.35,0,0,0,42.62,431.75Z"/><rect class="cls-25" y="203.12" width="454.38" height="18.28" rx="7.41"/><path class="cls-26" d="M439.72,75.23H322.3a22.36,22.36,0,0,0-20.23,12.83L247.8,203.13H393.72a13.6,13.6,0,0,0,12.65-8.6L448.45,88.05a9.37,9.37,0,0,0-8.73-12.82Z"/><path class="cls-27" d="M352.22,141.09c-2.54,7.9-.66,15.58,4.2,17.14s10.87-3.57,13.41-11.47.66-15.58-4.2-17.15S354.77,133.19,352.22,141.09Z"/></g></g></svg>