<svg xmlns="http://www.w3.org/2000/svg" width="557.084" height="476.118" viewBox="0 0 557.084 476.118">
  <g id="Layer_2" data-name="Layer 2" transform="translate(-47 -31)">
    <g id="Layer_1" data-name="Layer 1" transform="translate(47 31)">
      <circle id="Ellipse_1" data-name="Ellipse 1" cx="70.555" cy="70.555" r="70.555" transform="translate(206.735 159.93)" fill="#cea82l"/>
      <path id="Path_1" data-name="Path 1" d="M354.239,246.17h-25.85l-19.128-17.731L290.326,245.59a2.205,2.205,0,0,1-1.467.562H266.146a.756.756,0,0,1-.624-1.177l10.491-15.447h20.534l11.247-10.271v-16.6h1.951v1.951c1.959,2.935,6.845,0,6.845,0,4.894-2.935,7.829,0,7.829,0v10.755a4.394,4.394,0,0,0-1.01-1.037,5.9,5.9,0,0,0-2.741-1,8.708,8.708,0,0,0-1.511-.07,4.85,4.85,0,0,0-1.239.07c-.466.132-.747.562-1.09.879a5.632,5.632,0,0,1-1.256.879,3.989,3.989,0,0,1-2.891.351,5.931,5.931,0,0,1-2.126-1.195,6.2,6.2,0,0,1-.6-.58l-.2-.185a16.4,16.4,0,0,0,0,2.891c.158,1.1-.053,1.924.114,3.023l12.108,10.175h20.534Z" transform="translate(-32.208 -24.595)" fill="#fff"/>
      <path id="Path_2" data-name="Path 2" d="M350.767,284.836V256.412H328.291L309.172,238.69l-18.935,17.151a2.205,2.205,0,0,1-1.467.571H267.595v28.424H264.66v6.282h89.49v-6.282Zm-69.949-4.964h-5.869v-5.861h5.869Zm0-9.77h-5.869v-5.869h5.869Zm10.746,9.77H285.7v-5.861h5.861Zm0-9.77H285.7v-5.869h5.861Zm23.477,16.615H303.4v-10.8a5.817,5.817,0,0,1,11.633,0Zm-6.353-23.468a6.376,6.376,0,1,0-.009,0Zm24.936,16.624h-5.869v-5.861h5.869Zm0-9.77h-5.869v-5.869h5.869Zm10.755,9.77H338.5v-5.861h5.869Zm0-9.77H338.5v-5.869h5.869Z" transform="translate(-32.119 -28.967)" fill="#fff"/>
      <path id="Path_3" data-name="Path 3" d="M316.618,259.468h-1.959a.808.808,0,0,1-.808-.808v-4.622a.808.808,0,0,1,1.617,0v3.813h1.151a.808.808,0,0,1,0,1.617Z" transform="translate(-38.089 -30.732)" fill="#fff"/>
      <circle id="Ellipse_2" data-name="Ellipse 2" cx="70.555" cy="70.555" r="70.555" transform="translate(415.975 161.327)" fill="#cea82l"/>
      <path id="Path_4" data-name="Path 4" d="M583.1,244.663H510.075a1.625,1.625,0,0,1,0-3.251H583.1a1.678,1.678,0,0,0,1.678-1.669V229.26a1.678,1.678,0,0,0-1.678-1.669H510.075a1.625,1.625,0,0,1,0-3.251H583.1a4.929,4.929,0,0,1,4.92,4.92v10.482a4.929,4.929,0,0,1-4.92,4.92Z" transform="translate(-61.705 -27.226)" fill="#fff"/>
      <path id="Path_5" data-name="Path 5" d="M579.652,233.455H512.875a.817.817,0,1,1,0-1.625h66.777a.817.817,0,0,1,0,1.626Z" transform="translate(-62.133 -28.134)" fill="#fff"/>
      <path id="Path_6" data-name="Path 6" d="M579.652,240.015H512.875a.817.817,0,1,1,0-1.625h66.777a.817.817,0,0,1,0,1.626Z" transform="translate(-62.133 -28.93)" fill="#fff"/>
      <path id="Path_7" data-name="Path 7" d="M586.4,272.67H513.38a4.92,4.92,0,0,1-4.92-4.92V257.32a4.92,4.92,0,0,1,4.92-4.92H586.4a1.625,1.625,0,1,1,0,3.242H513.38a1.687,1.687,0,0,0-1.678,1.678v10.473a1.687,1.687,0,0,0,1.678,1.678H586.4a1.625,1.625,0,1,1,0,3.242Z" transform="translate(-61.707 -30.631)" fill="#fff"/>
      <path id="Path_8" data-name="Path 8" d="M585.205,267.777H518.428a.808.808,0,1,1,0-1.617h66.777a.808.808,0,0,1,0,1.617Z" transform="translate(-62.818 -32.301)" fill="#fff"/>
      <path id="Path_9" data-name="Path 9" d="M585.216,261.2H518.439a.817.817,0,0,1,0-1.625h66.777a.817.817,0,0,1,0,1.626Z" transform="translate(-62.829 -31.501)" fill="#fff"/>
      <path id="Path_10" data-name="Path 10" d="M586.4,300.679H513.38a4.929,4.929,0,0,1-4.92-4.92V285.32a4.929,4.929,0,0,1,4.92-4.92H586.4a1.626,1.626,0,0,1,0,3.251H513.38a1.678,1.678,0,0,0-1.678,1.669V295.8a1.678,1.678,0,0,0,1.678,1.669H586.4a1.625,1.625,0,0,1,0,3.251Z" transform="translate(-61.707 -34.029)" fill="#fff"/>
      <path id="Path_11" data-name="Path 11" d="M585.216,295.775H518.439a.817.817,0,0,1,0-1.625h66.777a.817.817,0,0,1,0,1.625Z" transform="translate(-62.829 -35.698)" fill="#fff"/>
      <path id="Path_12" data-name="Path 12" d="M585.216,289.205H518.439a.817.817,0,0,1,0-1.625h66.777a.817.817,0,0,1,0,1.626Z" transform="translate(-62.829 -34.901)" fill="#fff"/>
      <circle id="Ellipse_3" data-name="Ellipse 3" cx="70.555" cy="70.555" r="70.555" transform="translate(0 159.93)" fill="#cea82l"/>
      <line id="Line_1" data-name="Line 1" y2="77.645" transform="translate(33.406 191.482)" fill="none" stroke="#fff" stroke-miterlimit="10" stroke-width="8"/>
      <path id="Path_13" data-name="Path 13" d="M15.11,233.491l3.6,3.356,16.518-17.766,16.518,17.766,3.6-3.356L35.231,211.85Z" transform="translate(-1.834 -25.71)" fill="#fff"/>
      <line id="Line_2" data-name="Line 2" x2="76.213" transform="translate(35.954 260.587)" fill="none" stroke="#fff" stroke-miterlimit="10" stroke-width="8"/>
      <path id="Path_14" data-name="Path 14" d="M108.646,313.922l-3.356-3.6L123.056,293.8,105.29,277.282l3.356-3.6L130.287,293.8Z" transform="translate(-12.778 -33.214)" fill="#fff"/>
      <path id="Path_15" data-name="Path 15" d="M47.1,278.141l22.976-23.056L83.8,271.366l27.624-32.026" transform="translate(-5.716 -29.046)" fill="none" stroke="#fff" stroke-miterlimit="10" stroke-width="8"/>
      <path id="Path_16" data-name="Path 16" d="M121.321,264.271l-4.92.185-.9-24.242-24.119,2.671-.536-4.894,29.373-3.251Z" transform="translate(-11.026 -28.488)" fill="#fff"/>
      <circle id="Ellipse_4" data-name="Ellipse 4" cx="70.555" cy="70.555" r="70.555" transform="translate(100.798 335.008)" fill="#cea82l"/>
      <rect id="Rectangle_1" data-name="Rectangle 1" width="103.811" height="12.45" transform="translate(121.56 379.318)" fill="#fff"/>
      <rect id="Rectangle_2" data-name="Rectangle 2" width="23.187" height="10.667" transform="translate(121.56 394.694)" fill="#fff"/>
      <rect id="Rectangle_3" data-name="Rectangle 3" width="23.187" height="10.667" transform="translate(148.174 394.694)" fill="#fff"/>
      <rect id="Rectangle_4" data-name="Rectangle 4" width="23.187" height="10.667" transform="translate(174.797 394.694)" fill="#fff"/>
      <rect id="Rectangle_5" data-name="Rectangle 5" width="23.187" height="10.667" transform="translate(202.184 394.694)" fill="#fff"/>
      <rect id="Rectangle_6" data-name="Rectangle 6" width="23.187" height="10.667" transform="translate(121.56 407.338)" fill="#fff"/>
      <rect id="Rectangle_7" data-name="Rectangle 7" width="23.187" height="10.667" transform="translate(148.174 407.338)" fill="#fff"/>
      <rect id="Rectangle_8" data-name="Rectangle 8" width="23.187" height="10.667" transform="translate(174.797 407.338)" fill="#fff"/>
      <rect id="Rectangle_9" data-name="Rectangle 9" width="23.187" height="10.667" transform="translate(202.184 407.338)" fill="#fff"/>
      <rect id="Rectangle_10" data-name="Rectangle 10" width="23.187" height="10.667" transform="translate(121.56 419.981)" fill="#fff"/>
      <rect id="Rectangle_11" data-name="Rectangle 11" width="23.187" height="10.667" transform="translate(148.174 419.981)" fill="#fff"/>
      <rect id="Rectangle_12" data-name="Rectangle 12" width="23.187" height="10.667" transform="translate(174.797 419.981)" fill="#fff"/>
      <rect id="Rectangle_13" data-name="Rectangle 13" width="23.187" height="10.667" transform="translate(202.184 419.981)" fill="#fff"/>
      <circle id="Ellipse_5" data-name="Ellipse 5" cx="70.555" cy="70.555" r="70.555" transform="translate(315.177 335.008)" fill="#cea82l"/>
      <rect id="Rectangle_14" data-name="Rectangle 14" width="64.562" height="89.068" transform="translate(356.737 360.902)" fill="#fff"/>
      <path id="Path_17" data-name="Path 17" d="M421.446,487.325l-2.741,8.294H415.19l8.962-26.359h4.112l9,26.359h-3.638l-2.785-8.294Zm8.646-2.636-2.583-7.591c-.589-1.757-.975-3.286-1.371-4.815h-.079c-.387,1.564-.817,3.172-1.327,4.771l-2.583,7.635Z" transform="translate(-50.387 -56.949)" fill="#cea82l"/>
      <rect id="Rectangle_15" data-name="Rectangle 15" width="8.365" height="3.602" transform="translate(393.692 378.711) rotate(45)" fill="#cea82l"/>
      <rect id="Rectangle_16" data-name="Rectangle 16" width="14.111" height="3.602" transform="translate(394.533 384.622) rotate(-45)" fill="#cea82l"/>
      <rect id="Rectangle_17" data-name="Rectangle 17" width="8.365" height="3.602" transform="translate(393.686 393.057) rotate(45)" fill="#cea82l"/>
      <rect id="Rectangle_18" data-name="Rectangle 18" width="14.111" height="3.602" transform="translate(394.531 398.976) rotate(-45)" fill="#cea82l"/>
      <rect id="Rectangle_19" data-name="Rectangle 19" width="8.365" height="3.602" transform="translate(393.688 405.004) rotate(45)" fill="#cea82l"/>
      <rect id="Rectangle_20" data-name="Rectangle 20" width="14.111" height="3.602" transform="translate(394.528 410.923) rotate(-45)" fill="#cea82l"/>
      <path id="Path_18" data-name="Path 18" d="M438.358,448.868l-9.041-1.2L403.45,421.8l8.286-8.277,25.858,25.867Z" transform="translate(-48.963 -50.185)" fill="#cea82l"/>
      <path id="Path_19" data-name="Path 19" d="M438.172,450.03h-.158l-9.032-1.213a1.318,1.318,0,0,1-.782-.378l-25.894-25.9a1.362,1.362,0,0,1,0-1.915l8.286-8.277a1.344,1.344,0,0,1,1.907,0l25.867,25.867a1.353,1.353,0,0,1,.4.879l.756,9.489a1.353,1.353,0,0,1-1.344,1.459Zm-8.409-3.84,6.924.931-.58-7.328-24.558-24.558-6.37,6.37Z" transform="translate(-48.776 -49.994)" fill="#fff"/>
      <line id="Line_3" data-name="Line 3" y1="8.286" x2="8.277" transform="translate(360.032 368.871)" fill="#cea82l"/>
      <path id="Path_20" data-name="Path 20" d="M409.573,429.272a1.318,1.318,0,0,1-.958-.4,1.344,1.344,0,0,1,0-1.907l8.277-8.286a1.354,1.354,0,0,1,1.915,1.915l-8.286,8.277a1.309,1.309,0,0,1-.949.4Z" transform="translate(-49.541 -50.762)" fill="#fff"/>
      <circle id="Ellipse_6" data-name="Ellipse 6" cx="70.555" cy="70.555" r="70.555" transform="translate(105.138)" fill="#cea82l"/>
      <path id="Path_21" data-name="Path 21" d="M196.768,102.871H186.532c-2.267,0-3.778-.966-4.024-3.365-.439-4.464-2.443-8.171-4.991-11.826a22.933,22.933,0,0,1,1.151-27.809,23.345,23.345,0,0,1,41.393,16.4,22.142,22.142,0,0,1-4.587,12.3,20.077,20.077,0,0,0-4.279,9.9c-.474,3.778-1.4,4.393-5.272,4.393Zm-.1-2.961c3.154,0,6.317.1,9.472-.07.72,0,1.951-.879,2.012-1.467.5-4.771,2.706-8.681,5.474-12.477a18.7,18.7,0,0,0,3.1-15.1,20.305,20.305,0,0,0-37.158-7.029,19.936,19.936,0,0,0,.808,22.845c2.566,3.515,4.525,7.214,4.868,11.607.114,1.485.879,1.757,2.205,1.757,3.04-.114,6.115-.07,9.191-.07Z" transform="translate(-21.04 -6.221)" fill="#fff"/>
      <path id="Path_22" data-name="Path 22" d="M186.06,124.23h24.119l.325.606c-2.364,2.469-4.393,5.36-8.329,5.773C193.783,131.488,189.847,129.985,186.06,124.23Z" transform="translate(-22.58 -15.077)" fill="#fff"/>
      <path id="Path_23" data-name="Path 23" d="M198.226,115.576h-9.99c-1.344,0-2.829,0-2.856-1.757,0-1.907,1.555-1.889,2.979-1.889h19.725c1.4,0,3.075-.088,3.11,1.757.044,2.118-1.757,1.836-3.233,1.845Z" transform="translate(-22.498 -13.584)" fill="#fff"/>
      <path id="Path_24" data-name="Path 24" d="M198.211,121.506c-3.515,0-7.029.105-10.491-.079-.879,0-1.634-1.01-2.46-1.555.879-.641,1.652-1.81,2.5-1.828q10.491-.228,20.982,0c.879,0,1.643,1.213,2.46,1.863-.826.536-1.643,1.485-2.5,1.529C205.24,121.6,201.726,121.506,198.211,121.506Z" transform="translate(-22.483 -14.312)" fill="#fff"/>
      <path id="Path_25" data-name="Path 25" d="M152.562,80.165a39.4,39.4,0,0,1,4.323.053c.51.053.949.729,1.423,1.116-.474.474-.931,1.344-1.432,1.371-2.794.132-5.6.132-8.382,0-.474,0-.879-.879-1.344-1.379.448-.387.879-1.046,1.353-1.107a36.755,36.755,0,0,1,4.059-.053Z" transform="translate(-17.858 -9.724)" fill="#fff"/>
      <path id="Path_26" data-name="Path 26" d="M169.577,52.707a11.667,11.667,0,0,1-1.336-.949c-1.757-1.757-3.576-3.418-5.184-5.272-.431-.492-.22-1.546-.308-2.346.72.176,1.634.141,2.118.58,1.889,1.757,3.682,3.515,5.421,5.412a2.311,2.311,0,0,1,.413,1.713C170.693,52.162,170,52.4,169.577,52.707Z" transform="translate(-19.751 -5.357)" fill="#fff"/>
      <path id="Path_27" data-name="Path 27" d="M171.048,110.987a10.434,10.434,0,0,1-.817,1.081c-1.854,1.88-3.673,3.8-5.632,5.562-.422.378-1.4.149-2.109.2.079-.659-.079-1.546.29-1.951,1.757-1.942,3.646-3.8,5.579-5.6a2.416,2.416,0,0,1,1.757-.457C170.459,109.871,170.723,110.548,171.048,110.987Z" transform="translate(-19.72 -13.326)" fill="#fff"/>
      <path id="Path_28" data-name="Path 28" d="M245.519,82.928a26.139,26.139,0,0,1-3.8-.053c-.589-.088-1.09-.764-1.634-1.177.483-.457.949-1.283,1.45-1.3,2.794-.132,5.6-.114,8.382,0,.457,0,.879.729,1.327,1.125-.466.466-.879,1.265-1.406,1.336a33.6,33.6,0,0,1-4.314.062Z" transform="translate(-29.136 -9.746)" fill="#fff"/>
      <path id="Path_29" data-name="Path 29" d="M201.109,34.367a41.51,41.51,0,0,1-.053,4.314c-.053.466-.773,1.195-1.186,1.186s-1.274-.694-1.283-1.116c-.123-2.873-.123-5.764,0-8.637,0-.439.8-.879,1.221-1.274.439.483,1.186.931,1.265,1.467a31.245,31.245,0,0,1,.053,4.059Z" transform="translate(-24.089 -3.5)" fill="#fff"/>
      <path id="Path_30" data-name="Path 30" d="M229.084,52.7c-.334-.29-.879-.545-1.01-.94a1.538,1.538,0,0,1,.29-1.327c2-2.1,4.051-4.165,6.15-6.15a1.529,1.529,0,0,1,1.476-.07c.343.422.641,1.432.4,1.687-2.091,2.249-4.288,4.393-6.476,6.537A2.82,2.82,0,0,1,229.084,52.7Z" transform="translate(-27.674 -5.346)" fill="#fff"/>
      <path id="Path_31" data-name="Path 31" d="M236.638,117.218c-.272.334-.518.879-.879,1.028a1.59,1.59,0,0,1-1.362-.264c-2.091-2-4.156-4.033-6.15-6.15a1.757,1.757,0,0,1,.088-1.669,1.538,1.538,0,0,1,1.485-.255c2.232,2.1,4.393,4.3,6.519,6.484C236.5,116.541,236.515,116.849,236.638,117.218Z" transform="translate(-27.679 -13.328)" fill="#fff"/>
      <path id="Path_32" data-name="Path 32" d="M191.488,59.33c.237.228.923.562.975.967a2.021,2.021,0,0,1-.615,1.7,19.216,19.216,0,0,0-8.127,8.786,1.915,1.915,0,0,1-1.608.72,2.293,2.293,0,0,1-.993-1.757c.255-2.943,6.722-9.858,9.542-10.377A3.693,3.693,0,0,0,191.488,59.33Z" transform="translate(-21.981 -7.2)" fill="#fff"/>
      <circle id="Ellipse_7" data-name="Ellipse 7" cx="70.555" cy="70.555" r="70.555" transform="translate(310.837)" fill="#cea82l"/>
      <path id="Path_33" data-name="Path 33" d="M415.923,106.848A30.814,30.814,0,1,1,446.728,76.04a30.814,30.814,0,0,1-30.805,30.808Zm0-57.287A26.482,26.482,0,1,0,442.4,76.04,26.482,26.482,0,0,0,415.923,49.56Z" transform="translate(-46.736 -5.488)" fill="#fff"/>
      <path id="Path_34" data-name="Path 34" d="M418.189,90.82H405.931a2.161,2.161,0,0,1,0-4.323h10.087V68.6a2.17,2.17,0,0,1,4.332,0V88.659A2.161,2.161,0,0,1,418.189,90.82Z" transform="translate(-49.001 -8.079)" fill="#fff"/>
      <circle id="Ellipse_8" data-name="Ellipse 8" cx="13.443" cy="13.443" r="13.443" transform="translate(382.955 48.475)" fill="#fff"/>
      <path id="Path_35" data-name="Path 35" d="M426.53,68.108c0-.7,0-1.388.053-2.082,3.638,10.878,12.029,18.451,21.808,18.451,12.565,0,22.845-12.573,23.723-28.477a38.082,38.082,0,0,1,1.924,12.073c0,16.87-10.632,30.55-23.723,30.55S426.53,85,426.53,68.108Z" transform="translate(-51.764 -6.796)" fill="#fff"/>
    </g>
  </g>
</svg>
