<svg xmlns="http://www.w3.org/2000/svg" xmlns:xlink="http://www.w3.org/1999/xlink" viewBox="0 0 1031.71 1217.83"><defs><style>.cls-1{fill:url(#linear-gradient);}.cls-2{stroke:#ccb849;stroke-miterlimit:10;fill:url(#linear-gradient-2);}.cls-3{fill:url(#linear-gradient-3);}.cls-4{fill:url(#linear-gradient-4);}.cls-5{fill:url(#linear-gradient-5);}.cls-6{fill:url(#linear-gradient-6);}.cls-7{fill:url(#linear-gradient-7);}.cls-8{fill:url(#linear-gradient-8);}.cls-9{fill:url(#linear-gradient-9);}.cls-10{fill:url(#linear-gradient-10);}.cls-11{fill:url(#linear-gradient-11);}.cls-12{fill:url(#linear-gradient-12);}.cls-13{fill:url(#linear-gradient-13);}.cls-14{fill:url(#linear-gradient-14);}.cls-15{fill:url(#linear-gradient-15);}.cls-16{fill:url(#linear-gradient-16);}.cls-17,.cls-18,.cls-19,.cls-20,.cls-21,.cls-22{fill-rule:evenodd;}.cls-17{fill:url(#linear-gradient-17);}.cls-18{fill:url(#linear-gradient-18);}.cls-19{fill:url(#linear-gradient-19);}.cls-20{fill:url(#linear-gradient-20);}.cls-21{fill:url(#linear-gradient-21);}.cls-22{fill:url(#linear-gradient-22);}.cls-23{fill:url(#linear-gradient-23);}.cls-24{fill:url(#linear-gradient-24);}.cls-25{fill:url(#linear-gradient-25);}.cls-26{fill:url(#linear-gradient-26);}.cls-27{fill:url(#linear-gradient-27);}.cls-28{fill:url(#linear-gradient-28);}.cls-29{fill:url(#linear-gradient-29);}</style><linearGradient id="linear-gradient" x1="201.94" y1="327.88" x2="-380.19" y2="-53.57" gradientUnits="userSpaceOnUse"><stop offset="0" stop-color="#c2ad3a"/><stop offset="0.25" stop-color="#d3c155"/></linearGradient><linearGradient id="linear-gradient-2" x1="235.76" y1="661.26" x2="1055.34" y2="1421.09" gradientUnits="userSpaceOnUse"><stop offset="0" stop-color="#c2ad3a"/><stop offset="0.57" stop-color="#cbb748"/><stop offset="1" stop-color="#d3c155"/></linearGradient><linearGradient id="linear-gradient-3" x1="-4292.71" y1="233.81" x2="-4265.05" y2="407.83" gradientTransform="translate(-3745.7 1215.89) rotate(180)" gradientUnits="userSpaceOnUse"><stop offset="0" stop-color="#2b3582"/><stop offset="1" stop-color="#150e42"/></linearGradient><linearGradient id="linear-gradient-4" x1="-4281.61" y1="232.05" x2="-4253.94" y2="406.07" xlink:href="#linear-gradient-3"/><linearGradient id="linear-gradient-5" x1="-4302.98" y1="235.45" x2="-4275.32" y2="409.47" gradientTransform="translate(-3745.7 1215.89) rotate(180)" gradientUnits="userSpaceOnUse"><stop offset="0" stop-color="#53d8ff"/><stop offset="1" stop-color="#3840f7"/></linearGradient><linearGradient id="linear-gradient-6" x1="-971.32" y1="344.67" x2="-923.93" y2="344.67" gradientTransform="translate(-373.91 1205.5) rotate(-178.85)" gradientUnits="userSpaceOnUse"><stop offset="0" stop-color="#f9b776"/><stop offset="1" stop-color="#f47960"/></linearGradient><linearGradient id="linear-gradient-7" x1="-1274.05" y1="422.96" x2="-1226.23" y2="422.96" gradientTransform="translate(-775.78 1132.16) rotate(-171.95)" xlink:href="#linear-gradient-6"/><linearGradient id="linear-gradient-8" x1="-2525.97" y1="969.6" x2="-2500.51" y2="969.6" gradientTransform="matrix(0.59, -0.81, -0.81, -0.59, 2753.86, -535.68)" gradientUnits="userSpaceOnUse"><stop offset="0" stop-color="#2c759e"/><stop offset="1" stop-color="#051042"/></linearGradient><linearGradient id="linear-gradient-9" x1="-2489.63" y1="922.22" x2="-2464.32" y2="922.22" xlink:href="#linear-gradient-8"/><linearGradient id="linear-gradient-10" x1="-234.02" y1="367.64" x2="-132.44" y2="367.64" gradientTransform="matrix(-0.98, 0.21, -0.21, -0.98, 440.74, 1213.32)" xlink:href="#linear-gradient-3"/><linearGradient id="linear-gradient-11" x1="-4147.75" y1="535.88" x2="-4261.32" y2="504.75" gradientTransform="matrix(-1, -0.05, 0.05, -1, -3659.59, 1073.07)" xlink:href="#linear-gradient-3"/><linearGradient id="linear-gradient-12" x1="529.91" y1="464.23" x2="880.75" y2="470.08" gradientTransform="matrix(1, 0, 0, -1, 0, 1215.89)" xlink:href="#linear-gradient-6"/><linearGradient id="linear-gradient-13" x1="549.44" y1="441.99" x2="598.58" y2="441.99" gradientTransform="matrix(1, 0, 0, -1, 0, 1215.89)" xlink:href="#linear-gradient-3"/><linearGradient id="linear-gradient-14" x1="554.65" y1="456.3" x2="291.5" y2="719.45" gradientTransform="matrix(1, 0, 0, -1, 0, 1215.89)" gradientUnits="userSpaceOnUse"><stop offset="0" stop-color="#cb236d"/><stop offset="1" stop-color="#4c246d"/></linearGradient><linearGradient id="linear-gradient-15" x1="528.73" y1="465.23" x2="492.69" y2="543.95" xlink:href="#linear-gradient-14"/><linearGradient id="linear-gradient-16" x1="443.9" y1="459.03" x2="872.41" y2="466.17" gradientTransform="matrix(1, 0, 0, -1, 0, 1215.89)" xlink:href="#linear-gradient-6"/><linearGradient id="linear-gradient-17" x1="873.64" y1="-94.46" x2="862.19" y2="-2.87" gradientTransform="matrix(0.94, -0.34, -0.34, -0.94, -264.14, 864.15)" xlink:href="#linear-gradient-6"/><linearGradient id="linear-gradient-18" x1="523.18" y1="506.82" x2="545.53" y2="590.66" gradientTransform="matrix(1, 0, 0, -1, 0, 1215.89)" xlink:href="#linear-gradient-6"/><linearGradient id="linear-gradient-19" x1="1413.8" y1="282.66" x2="1169.7" y2="20.4" gradientTransform="matrix(0.9, -0.43, -0.43, -0.9, -413.49, 844.27)" xlink:href="#linear-gradient-14"/><linearGradient id="linear-gradient-20" x1="844.74" y1="-90" x2="835.66" y2="-17.31" gradientTransform="matrix(0.94, -0.34, -0.34, -0.94, -264.14, 864.15)" xlink:href="#linear-gradient-6"/><linearGradient id="linear-gradient-21" x1="1254.12" y1="401.33" x2="1025.34" y2="155.53" gradientTransform="matrix(0.94, -0.34, -0.34, -0.94, -264.14, 864.15)" xlink:href="#linear-gradient-14"/><linearGradient id="linear-gradient-22" x1="817.94" y1="-92.47" x2="809" y2="-20.93" gradientTransform="matrix(0.94, -0.34, -0.34, -0.94, -264.14, 864.15)" xlink:href="#linear-gradient-6"/><linearGradient id="linear-gradient-23" x1="-4525.09" y1="318.03" x2="-4424.07" y2="318.03" xlink:href="#linear-gradient-3"/><linearGradient id="linear-gradient-24" x1="-4513.33" y1="317.97" x2="-4412.37" y2="317.97" xlink:href="#linear-gradient-3"/><linearGradient id="linear-gradient-25" x1="-4252.79" y1="317.98" x2="-4151.83" y2="317.98" xlink:href="#linear-gradient-3"/><linearGradient id="linear-gradient-26" x1="-4241.09" y1="318.02" x2="-4140.07" y2="318.02" xlink:href="#linear-gradient-3"/><linearGradient id="linear-gradient-27" x1="520.56" y1="593.03" x2="883.23" y2="-368.05" gradientTransform="matrix(1, 0, 0, -1, 0, 1215.89)" gradientUnits="userSpaceOnUse"><stop offset="0" stop-color="#18459f"/><stop offset="1" stop-color="#2874b5"/></linearGradient><linearGradient id="linear-gradient-28" x1="-4403.39" y1="546.44" x2="-4483.98" y2="461.27" xlink:href="#linear-gradient-3"/><linearGradient id="linear-gradient-29" x1="-4447.33" y1="518.36" x2="-4483.9" y2="463.3" xlink:href="#linear-gradient-5"/></defs><g id="Layer_2" data-name="Layer 2"><g id="Layer_1-2" data-name="Layer 1"><g id="Layer_2-2" data-name="Layer 2"><g id="Layer_1-2-2" data-name="Layer 1-2"><path class="cls-1" d="M824.07,495.18c-136.29-58.92-311.56-94.36-502.76-94.36C207,400.82,98.46,413.48.5,436.24V0L.74.58C98.43,242.24,336.15,347,506.63,391.58,592.11,413.92,713.61,441.88,824.07,495.18Z"/><path class="cls-2" d="M1031.21,808.26c0,134.58-79.07,251.34-194.79,309.29q-22.53,10.14-46.54,19.41h0q-3.75,1.44-7.54,2.87c-129.52,48.76-288.8,77.5-461,77.5C207,1217.38,98.46,1204.72.5,1182V436.24c98-22.76,206.54-35.42,320.81-35.42,165.17,0,318.46,26.45,445,71.64q29.91,10.67,57.77,22.72a349.06,349.06,0,0,1,67.62,38.18A341.16,341.16,0,0,1,934,570.44a351,351,0,0,1,39.12,48.22,343.56,343.56,0,0,1,30,54.51A336.66,336.66,0,0,1,1031,796.74Q1031.23,802.5,1031.21,808.26Z"/></g></g><rect class="cls-3" x="530.62" y="850.02" width="12.8" height="138.42"/><path class="cls-4" d="M481,991.11H593.07a8.34,8.34,0,0,0-8.32-8.34H489.3a8.33,8.33,0,0,0-8.34,8.32v0Z"/><path class="cls-5" d="M478.09,819H591.51a13.78,13.78,0,0,1,13.77,13.77h0v12.45A13.77,13.77,0,0,1,591.51,859H478.09a13.76,13.76,0,0,1-13.77-13.77h0V832.76A13.76,13.76,0,0,1,478.08,819Z"/><path class="cls-6" d="M588.26,832.21c24.52,33.79,17.47,70.26-31.7,94.81-3.46-3.15-4.43-6.1-1-12.75,39.18-28.21,33.19-53.82,9.1-70.07Z"/><path class="cls-7" d="M537.06,847.58c19.63,35,15.34,62.35-41.09,80.45-3.09-8-1.81-12.42,3-14,42.72-21.46,31.82-38.32,10.62-56.52Z"/><path class="cls-8" d="M496,915.7c-1.61,6.76-.86,10.26,4.27,11.66,3.09,11.07,1.38,17.2-3.91,19.64-6.59-9.36-11.58-19.41-13.19-30.91C488,914.28,494.81,912.71,496,915.7Z"/><path class="cls-9" d="M555.6,914.27c-1.6,6.72-.85,10.19,4.24,11.59,3.07,11,1.38,17.1-3.88,19.52-6.55-9.31-11.51-19.3-13.12-30.72C547.71,912.86,554.44,911.29,555.6,914.27Z"/><path class="cls-10" d="M484.43,784.66c-3.34,22.84,6.86,51.81,24.85,75.56,12.75,1.41,26.6.2,37.3-6.53L533,823l6.38-1.91,26.49,27.2c12,1.75,19.94-4.31,29.28-10.43-10.4-22.93-34.05-33.64-40.15-65.66Z"/><path class="cls-11" d="M533.19,780.27h.33l141-.16a6.31,6.31,0,0,0,.5-12.61h-.5l-141,.15a6.31,6.31,0,0,0-.31,12.61Z"/><path class="cls-12" d="M574.3,730.74s9,46.77,12.29,46.77,64.68-7.37,64.68-7.37V756.81l-48.48,1.79-11.66-34.76Z"/><path class="cls-13" d="M549.58,785.28h49s-11.12-23.89-31.48-22.73S549.58,785.28,549.58,785.28Z"/><path class="cls-14" d="M562.73,781h-82l5-58.11s-6.13-43.85,21.86-48.72c16.48-4.48,16.48-4.44,16.48-4.44s21.09-3.28,38.72,4.5,32.12,54.57,32.12,54.57l-21.09,8.44-5.37-17.42Z"/><path class="cls-15" d="M516.69,733.2a.38.38,0,0,1-.31-.16.37.37,0,0,1,.06-.52h0l3.39-2.55-10.94-30.15a.39.39,0,0,1,.29-.47.4.4,0,0,1,.44.21l11,30.42a.39.39,0,0,1-.13.43l-3.6,2.72A.37.37,0,0,1,516.69,733.2Z"/><path class="cls-16" d="M498.29,741.28l18.4-8.47L533,761.39s46-7.16,54.18,1.53,4.35,8.56,3.33,8.56-5.76-5.09-5.76-5.09,4.15,6.24,1.92,6.52-7.67-5.62-7.67-5.62,4.48,7.79,1.79,6.9-4.85-5.11-4.85-5.11,3.57,5,1.15,5.18-6.14-4.12-6.14-4.12-5.68,2.58-8.94,2.58-36.11,8.2-42,4.79S498.29,741.28,498.29,741.28Z"/><path class="cls-17" d="M571.53,628.68s-2.27-6.39,3.5-7.53.27,15.83.27,15.83Z"/><path class="cls-18" d="M525.37,646l-2.28,25s13.21,7.72,24.59,1l-2-21.87Z"/><path class="cls-19" d="M574.2,628.21c4.15-2.08,2.69-18.56,2.72-22.42a3.4,3.4,0,0,1-3.31,1.37c3.42-7.62,1-16.5-1.92-24.32-2,2.22-6.09,4.92-9.15,4a10.66,10.66,0,0,0,.41-6.76,11,11,0,0,1-10.48,3.77,5.29,5.29,0,0,0-1.59-6.78,115.48,115.48,0,0,1-21.64,10.83c-8.72,3.26-18.35,5.8-24.41,12.86s-6.39,16-5.18,24.65c.66,4.73,1.07,9.41,2.94,13.91,5.18,12.46,17.23,14,28.9,9.46Z"/><path class="cls-20" d="M563.48,607.47s27.58,41.54-.91,54.27c-26.89,12-38.22-15.58-38.22-15.58s-11.82-12.25-7.85-21.68S556.76,602.3,563.48,607.47Z"/><path class="cls-21" d="M521.67,639.51a4.61,4.61,0,0,0,.91,0c2.47-.36,7-3.45,9.44-4.72a72.59,72.59,0,0,0,24.89-21.64c.3-.42.77-.9,1.25-.71a1.41,1.41,0,0,1,.57.7c2,3.89,8.61,5.07,10.51.54,0,0-2.32-20.63-18.5-13.94s-31,13.48-35.29,18.24a14.38,14.38,0,0,0-3.76,11.09C512.2,633.32,517,639.39,521.67,639.51Z"/><path class="cls-22" d="M527.91,649.87l-4.79-13.18s-9.26-4.26-8,2.91S524.6,650.73,527.91,649.87Z"/><path class="cls-23" d="M775,1008.82a4.51,4.51,0,0,0,1.74-.35,4.36,4.36,0,0,0,2.3-5.73v0L686.81,789.56a4.39,4.39,0,0,0-8.08,3.45l92.18,213.17A4.4,4.4,0,0,0,775,1008.82Z"/><path class="cls-24" d="M671.11,1008.82a4.41,4.41,0,0,0,4-2.64L767.32,793a4.39,4.39,0,0,0-8.07-3.45L667,1002.72a4.36,4.36,0,0,0,2.28,5.74h0A4.35,4.35,0,0,0,671.11,1008.82Z"/><path class="cls-25" d="M502.69,1008.82a4.51,4.51,0,0,0,1.74-.35,4.36,4.36,0,0,0,2.3-5.73v0L414.51,789.56a4.39,4.39,0,0,0-8.07,3.45l92.21,213.17A4.4,4.4,0,0,0,502.69,1008.82Z"/><path class="cls-26" d="M398.81,1008.82a4.4,4.4,0,0,0,4-2.64L495,793a4.36,4.36,0,0,0-2.28-5.73h0a4.42,4.42,0,0,0-5.78,2.29l-92.22,213.16a4.36,4.36,0,0,0,2.28,5.74h0A4.35,4.35,0,0,0,398.81,1008.82Z"/><rect class="cls-27" x="356.19" y="780.19" width="454.38" height="18.28" rx="7.41"/><path class="cls-28" d="M795.91,652.3H678.49a22.36,22.36,0,0,0-20.23,12.83L604,780.2H749.91a13.61,13.61,0,0,0,12.65-8.6l42.08-106.48a9.37,9.37,0,0,0-8.73-12.82Z"/><path class="cls-29" d="M708.41,718.16c-2.54,7.9-.66,15.58,4.2,17.14s10.87-3.57,13.41-11.47.66-15.58-4.2-17.15S711,710.26,708.41,718.16Z"/></g></g></svg>