<svg xmlns="http://www.w3.org/2000/svg" xmlns:xlink="http://www.w3.org/1999/xlink" viewBox="0 0 1031.71 1217.84"><defs><style>.cls-1{fill:url(#linear-gradient);}.cls-2{stroke:#ccb849;stroke-miterlimit:10;fill:url(#linear-gradient-2);}.cls-3{fill:url(#linear-gradient-3);}.cls-4{fill:url(#linear-gradient-4);}.cls-5{fill:url(#linear-gradient-5);}.cls-6{fill:url(#linear-gradient-6);}.cls-7{fill:url(#linear-gradient-7);}.cls-8{fill:url(#linear-gradient-8);}.cls-9{fill:url(#linear-gradient-9);}.cls-10{fill:url(#linear-gradient-10);}.cls-11{fill:url(#linear-gradient-11);}.cls-12{fill:url(#linear-gradient-12);}.cls-13{fill:url(#linear-gradient-13);}.cls-14{fill:url(#linear-gradient-14);}.cls-15{fill:url(#linear-gradient-15);}.cls-16{fill:url(#linear-gradient-16);}.cls-17,.cls-18,.cls-19,.cls-20,.cls-21,.cls-22{fill-rule:evenodd;}.cls-17{fill:url(#linear-gradient-17);}.cls-18{fill:url(#linear-gradient-18);}.cls-19{fill:url(#linear-gradient-19);}.cls-20{fill:url(#linear-gradient-20);}.cls-21{fill:url(#linear-gradient-21);}.cls-22{fill:url(#linear-gradient-22);}.cls-23{fill:url(#linear-gradient-23);}.cls-24{fill:url(#linear-gradient-24);}.cls-25{fill:url(#linear-gradient-25);}.cls-26{fill:url(#linear-gradient-26);}.cls-27{fill:url(#linear-gradient-27);}.cls-28{fill:url(#linear-gradient-28);}.cls-29{fill:url(#linear-gradient-29);}</style><linearGradient id="linear-gradient" x1="374.62" y1="948.24" x2="289.39" y2="1396.49" gradientTransform="matrix(1, 0, 0, -1, 0, 1215.89)" gradientUnits="userSpaceOnUse"><stop offset="0" stop-color="#c2ad3a"/><stop offset="1" stop-color="#d3c155"/><stop offset="1" stop-color="#61571d"/></linearGradient><linearGradient id="linear-gradient-2" x1="143.91" y1="621.8" x2="1015.38" y2="1301.78" gradientUnits="userSpaceOnUse"><stop offset="0" stop-color="#c2ad3a"/><stop offset="1" stop-color="#d3c155"/></linearGradient><linearGradient id="linear-gradient-3" x1="-4452.31" y1="260.74" x2="-4424.65" y2="434.76" gradientTransform="translate(-3805.7 1215.89) rotate(180)" gradientUnits="userSpaceOnUse"><stop offset="0" stop-color="#2b3582"/><stop offset="1" stop-color="#150e42"/></linearGradient><linearGradient id="linear-gradient-4" x1="-4441.21" y1="258.98" x2="-4413.54" y2="433" xlink:href="#linear-gradient-3"/><linearGradient id="linear-gradient-5" x1="-4462.58" y1="262.38" x2="-4434.92" y2="436.4" gradientTransform="translate(-3805.7 1215.89) rotate(180)" gradientUnits="userSpaceOnUse"><stop offset="0" stop-color="#53d8ff"/><stop offset="1" stop-color="#3840f7"/></linearGradient><linearGradient id="linear-gradient-6" x1="-1130.33" y1="374.19" x2="-1082.94" y2="374.19" gradientTransform="translate(-433.91 1204.9) rotate(-178.85)" gradientUnits="userSpaceOnUse"><stop offset="0" stop-color="#f9b776"/><stop offset="1" stop-color="#f47960"/></linearGradient><linearGradient id="linear-gradient-7" x1="-1428.62" y1="467.78" x2="-1380.8" y2="467.78" gradientTransform="translate(-835.48 1127.96) rotate(-171.95)" xlink:href="#linear-gradient-6"/><linearGradient id="linear-gradient-8" x1="-2458.03" y1="880.55" x2="-2432.57" y2="880.55" gradientTransform="matrix(0.59, -0.81, -0.81, -0.59, 2741.49, -559.96)" gradientUnits="userSpaceOnUse"><stop offset="0" stop-color="#2c759e"/><stop offset="1" stop-color="#051042"/></linearGradient><linearGradient id="linear-gradient-9" x1="-2421.69" y1="833.17" x2="-2396.38" y2="833.17" xlink:href="#linear-gradient-8"/><linearGradient id="linear-gradient-10" x1="-396.1" y1="366.82" x2="-294.52" y2="366.82" gradientTransform="matrix(-0.98, 0.21, -0.21, -0.98, 381.34, 1219.62)" xlink:href="#linear-gradient-3"/><linearGradient id="linear-gradient-11" x1="-4305.68" y1="569.21" x2="-4419.25" y2="538.08" gradientTransform="matrix(-1, -0.05, 0.05, -1, -3719.59, 1071.57)" xlink:href="#linear-gradient-3"/><linearGradient id="linear-gradient-12" x1="629.51" y1="491.17" x2="980.35" y2="497.02" gradientTransform="matrix(1, 0, 0, -1, 0, 1215.89)" xlink:href="#linear-gradient-6"/><linearGradient id="linear-gradient-13" x1="649.05" y1="468.93" x2="698.18" y2="468.93" gradientTransform="matrix(1, 0, 0, -1, 0, 1215.89)" xlink:href="#linear-gradient-3"/><linearGradient id="linear-gradient-14" x1="654.26" y1="483.24" x2="391.11" y2="746.39" gradientTransform="matrix(1, 0, 0, -1, 0, 1215.89)" gradientUnits="userSpaceOnUse"><stop offset="0" stop-color="#cb236d"/><stop offset="1" stop-color="#4c246d"/></linearGradient><linearGradient id="linear-gradient-15" x1="628.34" y1="492.17" x2="592.3" y2="570.89" xlink:href="#linear-gradient-14"/><linearGradient id="linear-gradient-16" x1="543.5" y1="485.96" x2="972.01" y2="493.1" gradientTransform="matrix(1, 0, 0, -1, 0, 1215.89)" xlink:href="#linear-gradient-6"/><linearGradient id="linear-gradient-17" x1="974.67" y1="-113.27" x2="963.22" y2="-21.68" gradientTransform="matrix(0.94, -0.34, -0.34, -0.94, -265.93, 853.93)" xlink:href="#linear-gradient-6"/><linearGradient id="linear-gradient-18" x1="622.78" y1="533.75" x2="645.13" y2="617.59" gradientTransform="matrix(1, 0, 0, -1, 0, 1215.89)" xlink:href="#linear-gradient-6"/><linearGradient id="linear-gradient-19" x1="1512.68" y1="251.01" x2="1268.58" y2="-11.25" gradientTransform="matrix(0.9, -0.43, -0.43, -0.9, -416.49, 831.37)" xlink:href="#linear-gradient-14"/><linearGradient id="linear-gradient-20" x1="945.77" y1="-108.81" x2="936.69" y2="-36.12" gradientTransform="matrix(0.94, -0.34, -0.34, -0.94, -265.93, 853.93)" xlink:href="#linear-gradient-6"/><linearGradient id="linear-gradient-21" x1="1355.15" y1="382.52" x2="1126.37" y2="136.72" gradientTransform="matrix(0.94, -0.34, -0.34, -0.94, -265.93, 853.93)" xlink:href="#linear-gradient-14"/><linearGradient id="linear-gradient-22" x1="918.97" y1="-111.28" x2="910.03" y2="-39.74" gradientTransform="matrix(0.94, -0.34, -0.34, -0.94, -265.93, 853.93)" xlink:href="#linear-gradient-6"/><linearGradient id="linear-gradient-23" x1="-4684.69" y1="344.97" x2="-4583.68" y2="344.97" xlink:href="#linear-gradient-3"/><linearGradient id="linear-gradient-24" x1="-4672.93" y1="344.91" x2="-4571.97" y2="344.91" xlink:href="#linear-gradient-3"/><linearGradient id="linear-gradient-25" x1="-4412.39" y1="344.91" x2="-4311.43" y2="344.91" xlink:href="#linear-gradient-3"/><linearGradient id="linear-gradient-26" x1="-4400.69" y1="344.96" x2="-4299.67" y2="344.96" xlink:href="#linear-gradient-3"/><linearGradient id="linear-gradient-27" x1="620.16" y1="619.97" x2="982.83" y2="-341.11" gradientTransform="matrix(1, 0, 0, -1, 0, 1215.89)" gradientUnits="userSpaceOnUse"><stop offset="0" stop-color="#18459f"/><stop offset="1" stop-color="#2874b5"/></linearGradient><linearGradient id="linear-gradient-28" x1="-4562.99" y1="573.38" x2="-4643.58" y2="488.21" xlink:href="#linear-gradient-3"/><linearGradient id="linear-gradient-29" x1="-4606.93" y1="545.3" x2="-4643.5" y2="490.24" xlink:href="#linear-gradient-5"/></defs><g id="Layer_2" data-name="Layer 2"><g id="Layer_1-2" data-name="Layer 1"><path class="cls-1" d="M824.07,495.18c-136.29-58.92-311.56-94.36-502.76-94.36C207,400.82,98.46,413.48.5,436.24V0L.74.58C98.43,242.24,336.15,347,506.63,391.58,592.11,413.92,713.61,441.88,824.07,495.18Z"/><path class="cls-2" d="M1031.21,808.26c0,134.58-79.07,251.34-194.79,309.29q-22.53,10.14-46.54,19.41h0q-3.75,1.44-7.54,2.87c-129.52,48.76-288.8,77.5-461,77.5C207,1217.38,98.46,1204.72.5,1182V436.24c98-22.76,206.54-35.42,320.81-35.42,165.17,0,318.46,26.45,445,71.64q29.91,10.67,57.77,22.72a348.77,348.77,0,0,1,67.62,38.18A341.15,341.15,0,0,1,934,570.44a351.75,351.75,0,0,1,39.12,48.22,344.1,344.1,0,0,1,30,54.51A336.78,336.78,0,0,1,1031,796.74Q1031.22,802.5,1031.21,808.26Z"/><rect class="cls-3" x="630.22" y="823.09" width="12.8" height="138.42"/><path class="cls-4" d="M580.56,964.17H692.67a8.33,8.33,0,0,0-8.32-8.34H588.9a8.34,8.34,0,0,0-8.34,8.32v0Z"/><path class="cls-5" d="M577.69,792.07H691.11a13.76,13.76,0,0,1,13.77,13.76h0v12.45a13.77,13.77,0,0,1-13.77,13.77H577.69a13.78,13.78,0,0,1-13.77-13.77h0V805.83a13.76,13.76,0,0,1,13.76-13.76Z"/><path class="cls-6" d="M687.86,805.28c24.52,33.79,17.47,70.26-31.7,94.81-3.46-3.16-4.43-6.1-1-12.75,39.18-28.21,33.19-53.82,9.1-70.07Z"/><path class="cls-7" d="M636.66,820.65c19.63,35,15.34,62.34-41.09,80.45-3.09-8-1.81-12.42,3-14,42.72-21.46,31.82-38.32,10.62-56.52Z"/><path class="cls-8" d="M595.57,888.77c-1.61,6.76-.86,10.26,4.27,11.65,3.09,11.07,1.38,17.21-3.91,19.65-6.59-9.36-11.58-19.41-13.19-30.91C587.63,887.35,594.41,885.78,595.57,888.77Z"/><path class="cls-9" d="M655.2,887.34c-1.6,6.71-.85,10.19,4.24,11.59,3.07,11,1.38,17.1-3.88,19.52-6.55-9.31-11.51-19.3-13.12-30.72C647.31,885.92,654,884.36,655.2,887.34Z"/><path class="cls-10" d="M584,757.73c-3.34,22.84,6.86,51.81,24.85,75.56,12.75,1.41,26.6.2,37.3-6.53l-13.54-30.69,6.38-1.91,26.49,27.2c12,1.75,19.94-4.31,29.28-10.43-10.4-22.93-34-33.64-40.15-65.66Z"/><path class="cls-11" d="M632.79,753.34h.33l141-.16a6.31,6.31,0,1,0,.5-12.61,4.17,4.17,0,0,0-.5,0l-141,.15a6.31,6.31,0,0,0-.31,12.61Z"/><path class="cls-12" d="M673.9,703.8s9,46.78,12.29,46.78,64.68-7.37,64.68-7.37V729.88l-48.48,1.78L690.73,696.9Z"/><path class="cls-13" d="M649.18,758.35h49s-11.12-23.89-31.48-22.74S649.18,758.35,649.18,758.35Z"/><path class="cls-14" d="M662.33,754.08h-82l5-58.11s-6.13-43.85,21.86-48.72c16.48-4.48,16.48-4.44,16.48-4.44s21.09-3.28,38.72,4.5,32.12,54.57,32.12,54.57l-21.09,8.44-5.37-17.42Z"/><path class="cls-15" d="M616.29,706.27a.45.45,0,0,1-.31-.16.38.38,0,0,1,.07-.52h0l3.39-2.55-10.94-30.15a.39.39,0,0,1,.73-.27l11,30.42a.39.39,0,0,1-.13.43l-3.6,2.72A.43.43,0,0,1,616.29,706.27Z"/><path class="cls-16" d="M597.89,714.35l18.4-8.47,16.27,28.58s46-7.16,54.18,1.53,4.35,8.56,3.33,8.56-5.76-5.09-5.76-5.09,4.15,6.24,1.92,6.52-7.67-5.62-7.67-5.62,4.48,7.79,1.79,6.9-4.85-5.11-4.85-5.11,3.57,5,1.15,5.18-6.14-4.12-6.14-4.12-5.68,2.58-8.94,2.58-36.11,8.2-42,4.79S597.89,714.35,597.89,714.35Z"/><path class="cls-17" d="M671.13,601.74s-2.27-6.39,3.5-7.53.27,15.83.27,15.83Z"/><path class="cls-18" d="M625,619.09l-2.28,25s13.21,7.71,24.59,1l-2-21.87Z"/><path class="cls-19" d="M673.8,601.28c4.15-2.08,2.69-18.56,2.72-22.42a3.43,3.43,0,0,1-3.31,1.37c3.42-7.62,1-16.5-1.92-24.32-2,2.22-6.09,4.92-9.15,4a10.66,10.66,0,0,0,.41-6.76,11,11,0,0,1-10.48,3.77,5.29,5.29,0,0,0-1.59-6.78A116.4,116.4,0,0,1,628.84,561c-8.72,3.26-18.35,5.8-24.41,12.86s-6.39,16-5.18,24.65c.66,4.73,1.07,9.41,2.94,13.91,5.18,12.46,17.23,14,28.9,9.46Z"/><path class="cls-20" d="M663.08,580.54s27.58,41.54-.91,54.27c-26.89,12-38.22-15.58-38.22-15.58S612.13,607,616.1,597.55,656.36,575.36,663.08,580.54Z"/><path class="cls-21" d="M621.27,612.58a4.61,4.61,0,0,0,.91,0c2.47-.36,7-3.45,9.44-4.72a72.61,72.61,0,0,0,24.89-21.64c.3-.42.77-.9,1.25-.71a1.27,1.27,0,0,1,.57.7c2,3.89,8.61,5.07,10.51.53,0,0-2.32-20.63-18.5-13.94s-31,13.48-35.29,18.24a14.39,14.39,0,0,0-3.76,11.1C611.8,606.39,616.62,612.46,621.27,612.58Z"/><path class="cls-22" d="M627.51,622.93l-4.79-13.17s-9.26-4.27-8,2.9S624.2,623.8,627.51,622.93Z"/><path class="cls-23" d="M874.59,981.89a4.51,4.51,0,0,0,1.74-.35,4.39,4.39,0,0,0,2.31-5.74h0L786.41,762.63a4.39,4.39,0,1,0-8.08,3.45l92.18,213.16A4.43,4.43,0,0,0,874.59,981.89Z"/><path class="cls-24" d="M770.71,981.89a4.42,4.42,0,0,0,4-2.64l92.21-213.17a4.39,4.39,0,0,0-8.07-3.45L766.63,975.79a4.38,4.38,0,0,0,2.28,5.74h0A4.71,4.71,0,0,0,770.71,981.89Z"/><path class="cls-25" d="M602.29,981.89a4.51,4.51,0,0,0,1.74-.35,4.39,4.39,0,0,0,2.31-5.74h0L514.11,762.63a4.39,4.39,0,0,0-8.07,3.45l92.21,213.16A4.41,4.41,0,0,0,602.29,981.89Z"/><path class="cls-26" d="M498.41,981.89a4.41,4.41,0,0,0,4-2.64l92.22-213.17a4.36,4.36,0,0,0-2.28-5.74h0a4.4,4.4,0,0,0-5.78,2.29L494.33,975.79a4.38,4.38,0,0,0,2.28,5.74h0A4.71,4.71,0,0,0,498.41,981.89Z"/><rect class="cls-27" x="455.79" y="753.26" width="454.38" height="18.28" rx="7.41"/><path class="cls-28" d="M895.51,625.36H778.09a22.36,22.36,0,0,0-20.23,12.84L703.59,753.27H849.51a13.63,13.63,0,0,0,12.65-8.6l42.08-106.48A9.37,9.37,0,0,0,899,626,9.55,9.55,0,0,0,895.51,625.36Z"/><path class="cls-29" d="M808,691.23c-2.54,7.9-.66,15.58,4.2,17.14s10.87-3.57,13.41-11.47.66-15.58-4.2-17.15S810.56,683.33,808,691.23Z"/></g></g></svg>