<svg xmlns="http://www.w3.org/2000/svg" xmlns:xlink="http://www.w3.org/1999/xlink" viewBox="0 0 1031.71 1217.84"><defs><style>.cls-1{fill:url(#linear-gradient);}.cls-2{stroke:#ccb849;stroke-miterlimit:10;fill:url(#linear-gradient-2);}</style><linearGradient id="linear-gradient" x1="374.62" y1="948.24" x2="289.39" y2="1396.49" gradientTransform="matrix(1, 0, 0, -1, 0, 1215.89)" gradientUnits="userSpaceOnUse"><stop offset="0" stop-color="#c2ad3a"/><stop offset="1" stop-color="#d3c155"/><stop offset="1" stop-color="#61571d"/></linearGradient><linearGradient id="linear-gradient-2" x1="143.91" y1="621.8" x2="1015.38" y2="1301.78" gradientUnits="userSpaceOnUse"><stop offset="0" stop-color="#c2ad3a"/><stop offset="1" stop-color="#d3c155"/></linearGradient></defs><g id="Layer_2" data-name="Layer 2"><g id="Layer_1-2" data-name="Layer 1"><path class="cls-1" d="M824.07,495.18c-136.29-58.92-311.56-94.36-502.76-94.36C207,400.82,98.46,413.48.5,436.24V0L.74.58C98.43,242.24,336.15,347,506.63,391.58,592.11,413.92,713.61,441.88,824.07,495.18Z"/><path class="cls-2" d="M1031.21,808.26c0,134.58-79.07,251.34-194.79,309.29q-22.53,10.14-46.54,19.41h0q-3.75,1.44-7.54,2.87c-129.52,48.76-288.8,77.5-461,77.5C207,1217.38,98.46,1204.72.5,1182V436.24c98-22.76,206.54-35.42,320.81-35.42,165.17,0,318.46,26.45,445,71.64q29.91,10.67,57.77,22.72a348.77,348.77,0,0,1,67.62,38.18A341.15,341.15,0,0,1,934,570.44a351.75,351.75,0,0,1,39.12,48.22,344.1,344.1,0,0,1,30,54.51A336.78,336.78,0,0,1,1031,796.74Q1031.22,802.5,1031.21,808.26Z"/></g></g></svg>